<?xml version="1.0" encoding="UTF-8"?>
<svg width="166px" height="75px" viewBox="0 0 166 75" version="1.1" xmlns="http://www.w3.org/2000/svg" xmlns:xlink="http://www.w3.org/1999/xlink">
    <!-- Generator: Sketch 52.4 (67378) - http://www.bohemiancoding.com/sketch -->
    <title>Recurso 2</title>
    <desc>Created with Sketch.</desc>
    <defs>
        <polygon id="path-1" points="60 36 64.3443266 15 77 15 76.3044835 18.3473544 67.1248774 18.3473544 65.9126482 24.2362187 74.1376237 24.2362187 73.4708976 27.5246845 65.2413762 27.5246845 63.4760674 35.9953509"></polygon>
        <filter x="-135.3%" y="-90.5%" width="370.6%" height="319.0%" filterUnits="objectBoundingBox" id="filter-2">
            <feOffset dx="0" dy="4" in="SourceAlpha" result="shadowOffsetOuter1"></feOffset>
            <feGaussianBlur stdDeviation="7" in="shadowOffsetOuter1" result="shadowBlurOuter1"></feGaussianBlur>
            <feColorMatrix values="0 0 0 0 0.503594541   0 0 0 0 0.597691893   0 0 0 0 0.834980867  0 0 0 0.271625906 0" type="matrix" in="shadowBlurOuter1"></feColorMatrix>
        </filter>
        <path d="M75.5472637,27.4139676 C75.5225816,27.5186666 75.5119998,27.6257391 75.5157546,27.7327935 C75.5157546,29.7353239 77.0381426,31.1275304 79.1641791,31.1275304 C81.1923715,31.1275304 82.4925373,30.1406883 83.0945274,29.0673077 L85.9137645,30.4898785 C84.86733,32.3466599 82.4908789,34 79.0679934,34 C75.2321725,34 72,31.6209514 72,27.5293522 C72,22.215587 76.145937,19 80.3665008,19 C84.6135987,19 87,21.4291498 87,24.8314777 C86.9886992,25.7069305 86.8389981,26.5762731 86.5555556,27.4124494 L75.5472637,27.4139676 Z M83.3764511,24.9468623 C83.3764511,24.88917 83.4079602,24.6568826 83.4079602,24.5126518 C83.4079602,23.2980769 82.615257,21.8132591 80.2703151,21.8132591 C77.9485904,21.8132591 76.4991708,23.2935223 75.9585406,24.9468623 L83.3764511,24.9468623 Z" id="path-3"></path>
        <filter x="-153.3%" y="-126.7%" width="406.7%" height="406.7%" filterUnits="objectBoundingBox" id="filter-4">
            <feOffset dx="0" dy="4" in="SourceAlpha" result="shadowOffsetOuter1"></feOffset>
            <feGaussianBlur stdDeviation="7" in="shadowOffsetOuter1" result="shadowBlurOuter1"></feGaussianBlur>
            <feColorMatrix values="0 0 0 0 0.503594541   0 0 0 0 0.597691893   0 0 0 0 0.834980867  0 0 0 0.271625906 0" type="matrix" in="shadowBlurOuter1"></feColorMatrix>
        </filter>
        <path d="M90.5492257,27.4139676 C90.5245299,27.5186666 90.5139422,27.6257391 90.5176991,27.7327935 C90.5176991,29.7353239 92.0409292,31.1275304 94.1681416,31.1275304 C96.1974558,31.1275304 97.4983407,30.1406883 98.1006637,29.0673077 L100.92146,30.4898785 C99.8744469,32.3466599 97.4966814,34 94.0719027,34 C90.2339602,34 87,31.6209514 87,27.5293522 C87,22.215587 91.1482301,19 95.3711283,19 C99.6205752,19 102,21.4291498 102,24.8314777 C101.988693,25.7069305 101.838909,26.5762731 101.55531,27.4124494 L90.5492257,27.4139676 Z M98.3827434,24.9468623 C98.3827434,24.88917 98.4142699,24.6568826 98.4142699,24.5126518 C98.4142699,23.2980769 97.6211283,21.8132591 95.2748894,21.8132591 C92.960177,21.8132591 91.5016593,23.2935223 90.9607301,24.9468623 L98.3827434,24.9468623 Z" id="path-5"></path>
        <filter x="-153.3%" y="-126.7%" width="406.7%" height="406.7%" filterUnits="objectBoundingBox" id="filter-6">
            <feOffset dx="0" dy="4" in="SourceAlpha" result="shadowOffsetOuter1"></feOffset>
            <feGaussianBlur stdDeviation="7" in="shadowOffsetOuter1" result="shadowBlurOuter1"></feGaussianBlur>
            <feColorMatrix values="0 0 0 0 0.503594541   0 0 0 0 0.597691893   0 0 0 0 0.834980867  0 0 0 0.271625906 0" type="matrix" in="shadowBlurOuter1"></feColorMatrix>
        </filter>
        <polygon id="path-7" points="102 34 106.577873 13 110 13 105.417461 34"></polygon>
        <filter x="-287.5%" y="-90.5%" width="675.0%" height="319.0%" filterUnits="objectBoundingBox" id="filter-8">
            <feOffset dx="0" dy="4" in="SourceAlpha" result="shadowOffsetOuter1"></feOffset>
            <feGaussianBlur stdDeviation="7" in="shadowOffsetOuter1" result="shadowBlurOuter1"></feGaussianBlur>
            <feColorMatrix values="0 0 0 0 0.503594541   0 0 0 0 0.597691893   0 0 0 0 0.834980867  0 0 0 0.271625906 0" type="matrix" in="shadowBlurOuter1"></feColorMatrix>
        </filter>
        <polygon id="path-9" points="109 36 113.207063 15 126 15 125.1031 19.4429931 116.713928 19.4429931 115.844918 23.8859863 123.222692 23.8859863 122.353683 28.1507638 115.03169 28.1507638 113.427252 36"></polygon>
        <filter x="-135.3%" y="-90.5%" width="370.6%" height="319.0%" filterUnits="objectBoundingBox" id="filter-10">
            <feOffset dx="0" dy="4" in="SourceAlpha" result="shadowOffsetOuter1"></feOffset>
            <feGaussianBlur stdDeviation="7" in="shadowOffsetOuter1" result="shadowBlurOuter1"></feGaussianBlur>
            <feColorMatrix values="0 0 0 0 0.503594541   0 0 0 0 0.597691893   0 0 0 0 0.834980867  0 0 0 0.271625906 0" type="matrix" in="shadowBlurOuter1"></feColorMatrix>
        </filter>
        <path d="M124,34 L126.816412,18.5090393 L130.856745,18.5090393 L128.038943,34 L124,34 Z M129.899861,11.0081531 C131.151599,11.0081531 132,12.037079 132,13.4084367 C132,15.2151719 130.748261,16.4006381 129.394993,16.4006381 C128.172462,16.4006381 127.294854,15.3717122 127.294854,14.0003545 C127.294854,12.3093938 128.442281,11 129.899861,11 L129.899861,11.0081531 Z" id="path-11"></path>
        <filter x="-287.5%" y="-82.6%" width="675.0%" height="300.0%" filterUnits="objectBoundingBox" id="filter-12">
            <feOffset dx="0" dy="4" in="SourceAlpha" result="shadowOffsetOuter1"></feOffset>
            <feGaussianBlur stdDeviation="7" in="shadowOffsetOuter1" result="shadowBlurOuter1"></feGaussianBlur>
            <feColorMatrix values="0 0 0 0 0.503594541   0 0 0 0 0.597691893   0 0 0 0 0.834980867  0 0 0 0.271625906 0" type="matrix" in="shadowBlurOuter1"></feColorMatrix>
        </filter>
        <path d="M135.043485,28.4718068 C135.01029,28.6360313 134.990102,28.8024518 134.983097,28.969628 C134.983097,29.8779601 135.618752,30.2287326 136.530916,30.2287326 C136.910982,30.2215191 137.288753,30.1700881 137.656024,30.0755569 L136.861456,33.5894085 C136.203913,33.8769772 135.487192,34.0168218 134.765386,33.9983877 C131.941491,33.9983877 130.239526,32.4467174 130.239526,30.0755569 C130.249382,29.652343 130.302612,29.2311044 130.39844,28.817984 L131.61254,23.1382274 L129,23.1382274 L129.850188,19.2444999 L130.578012,19.2444999 C132.278388,19.2444999 133.068188,18.3668029 133.438457,16.8733394 L133.894539,15 L138.026293,15 L137.083935,19.2444999 L140,19.2444999 L139.119619,23.1382274 L136.227391,23.1382274 L135.043485,28.4718068 Z" id="path-13"></path>
        <filter x="-209.1%" y="-100.0%" width="518.2%" height="342.1%" filterUnits="objectBoundingBox" id="filter-14">
            <feOffset dx="0" dy="4" in="SourceAlpha" result="shadowOffsetOuter1"></feOffset>
            <feGaussianBlur stdDeviation="7" in="shadowOffsetOuter1" result="shadowBlurOuter1"></feGaussianBlur>
            <feColorMatrix values="0 0 0 0 0.503594541   0 0 0 0 0.597691893   0 0 0 0 0.834980867  0 0 0 0.271625906 0" type="matrix" in="shadowBlurOuter1"></feColorMatrix>
        </filter>
        <path d="M75.2140992,45.874179 L75.586597,43.8542734 L75,43.8542734 L75.1218451,43.1877045 L75.2158399,43.1877045 C75.54217,43.2231624 75.8358579,42.9575994 75.8859878,42.5817328 L75.9956484,42 L76.5665796,42 L76.3437772,43.1957841 L77,43.1957841 L76.8781549,43.862353 L76.2184508,43.862353 L75.870322,45.8358008 C75.8574326,45.8945949 75.8504238,45.9549165 75.8494343,46.0155724 C75.8494343,46.2519014 75.9712794,46.3549166 76.2149695,46.3549166 C76.2877007,46.3542868 76.3603431,46.3488918 76.43255,46.3387573 L76.3228895,46.944729 C76.2103324,46.9855872 76.0926248,47.0040272 75.9747607,46.9992665 C75.5013055,46.9992665 75.1897302,46.6922408 75.1897302,46.1650455 C75.1879304,46.0673136 75.1961104,45.9696783 75.2140992,45.874179 Z" id="path-15"></path>
        <filter x="-1150.0%" y="-380.0%" width="2400.0%" height="1019.2%" filterUnits="objectBoundingBox" id="filter-16">
            <feOffset dx="0" dy="4" in="SourceAlpha" result="shadowOffsetOuter1"></feOffset>
            <feGaussianBlur stdDeviation="7" in="shadowOffsetOuter1" result="shadowBlurOuter1"></feGaussianBlur>
            <feColorMatrix values="0 0 0 0 0.503594541   0 0 0 0 0.597691893   0 0 0 0 0.834980867  0 0 0 0.271625906 0" type="matrix" in="shadowBlurOuter1"></feColorMatrix>
        </filter>
        <path d="M76,47 L76.8039904,43.7199697 L77.5376317,43.7199697 L76.7336413,47 L76,47 Z M77.5235618,42.000189 C77.649997,41.9968136 77.7724954,42.0387728 77.8625083,42.1162877 C77.9525212,42.1938026 78.0021853,42.3001019 77.9999262,42.4104119 C77.9875808,42.684671 77.7355003,42.9045341 77.4210531,42.9153017 C77.2946179,42.9186771 77.1721195,42.8767179 77.0821066,42.799203 C76.9920937,42.721688 76.9424296,42.6153888 76.9446887,42.5050787 C76.9570341,42.2308197 77.2091146,42.0109565 77.5235618,42.000189 Z" id="path-17"></path>
        <filter x="-1150.0%" y="-345.6%" width="2376.9%" height="985.6%" filterUnits="objectBoundingBox" id="filter-18">
            <feOffset dx="0" dy="4" in="SourceAlpha" result="shadowOffsetOuter1"></feOffset>
            <feGaussianBlur stdDeviation="7" in="shadowOffsetOuter1" result="shadowBlurOuter1"></feGaussianBlur>
            <feColorMatrix values="0 0 0 0 0.503594541   0 0 0 0 0.597691893   0 0 0 0 0.834980867  0 0 0 0.271625906 0" type="matrix" in="shadowBlurOuter1"></feColorMatrix>
        </filter>
        <path d="M78.4053304,44.7647698 C78.4032214,44.8199622 78.4032214,44.8754636 78.4053304,44.930656 C78.3967147,45.2586129 78.448573,45.5799719 78.5485487,45.8181604 C78.6485244,46.0563489 78.7876645,46.1900369 78.9328151,46.1873695 C79.1861029,46.2055516 79.4228226,45.9032685 79.5469184,45.4031803 L79.8534148,45.8530837 C79.6643406,46.5822572 79.3151232,47.0212603 78.9416991,46.9992065 C78.4275403,46.9992065 78,46.2652858 78,44.8577666 C78,43.0757468 78.5607996,42 79.1404775,42 C79.7023876,42 80,42.7841892 80,43.8976374 C79.9985831,44.1900663 79.9783828,44.4804742 79.9400333,44.7597429 L78.4053304,44.7647698 Z M79.5680178,44.0107417 C79.5740722,43.9463011 79.5770506,43.8805749 79.5769017,43.8146944 C79.5840045,43.5358015 79.5368039,43.2638508 79.4477316,43.0704685 C79.3586593,42.8770862 79.2366453,42.7816601 79.1138257,42.8093235 C78.8002977,42.8250018 78.5316355,43.3211986 78.4619656,44.0132551 L79.5680178,44.0107417 Z" id="path-19"></path>
        <filter x="-1150.0%" y="-375.6%" width="2400.0%" height="1015.6%" filterUnits="objectBoundingBox" id="filter-20">
            <feOffset dx="0" dy="4" in="SourceAlpha" result="shadowOffsetOuter1"></feOffset>
            <feGaussianBlur stdDeviation="7" in="shadowOffsetOuter1" result="shadowBlurOuter1"></feGaussianBlur>
            <feColorMatrix values="0 0 0 0 0.503594541   0 0 0 0 0.597691893   0 0 0 0 0.834980867  0 0 0 0.271625906 0" type="matrix" in="shadowBlurOuter1"></feColorMatrix>
        </filter>
        <path d="M84.3072573,47 L84.568492,44.0635285 C84.579719,43.9408092 84.585532,43.8156084 84.5858353,43.6899844 C84.5858353,43.1556089 84.4590119,42.8417281 84.2140366,42.8417281 C83.8888482,42.8417281 83.7089107,43.5187767 83.6492928,44.1750729 L83.3967298,47 L83,47 L83.3544553,43.0025596 C83.3808546,42.7209673 83.3975316,42.4346561 83.4043176,42.1465211 L83.7923757,42.1465211 C83.788711,42.3257125 83.7803845,42.5041834 83.7674446,42.6808966 C83.9169111,42.219018 84.152565,41.9652407 84.3961421,42.003848 C84.5595388,41.9822767 84.7189786,42.1291218 84.834174,42.4072782 C84.9493695,42.6854345 85.0093008,43.0682933 84.9988246,43.4591134 C84.9973657,43.6149932 84.9904767,43.7703102 84.9782293,43.9234495 L84.7039871,47 L84.3072573,47 Z" id="path-21"></path>
        <filter x="-1132.3%" y="-377.1%" width="2382.3%" height="1017.1%" filterUnits="objectBoundingBox" id="filter-22">
            <feOffset dx="0" dy="4" in="SourceAlpha" result="shadowOffsetOuter1"></feOffset>
            <feGaussianBlur stdDeviation="7" in="shadowOffsetOuter1" result="shadowBlurOuter1"></feGaussianBlur>
            <feColorMatrix values="0 0 0 0 0.503594541   0 0 0 0 0.597691893   0 0 0 0 0.834980867  0 0 0 0.271625906 0" type="matrix" in="shadowBlurOuter1"></feColorMatrix>
        </filter>
        <path d="M86.7019807,47 C85.5826808,47 85,46.3662465 85,45.5626751 C85,44.5 85.9212345,43.5598739 87.2501152,43.5598739 C87.9755873,43.5598739 88.4016582,43.8119748 88.5928144,44.0710784 L89.1662828,42 L90,42 L88.8714878,46.0808824 C88.8013325,46.3246326 88.7681054,46.5736853 88.7724551,46.8231793 C88.7690975,46.8593154 88.7690975,46.8955866 88.7724551,46.9317227 L87.9755873,46.9317227 C87.9618214,46.8686725 87.9556542,46.8047988 87.9571626,46.7408964 C87.9565569,46.6659675 87.9627129,46.5910952 87.9755873,46.5168067 C87.6684217,46.8154314 87.2005721,46.9929288 86.7019807,47 Z M85.8521419,45.5556723 C85.8521419,46.0808824 86.1837863,46.4485294 86.872409,46.4485294 C87.6969139,46.4485294 88.2980193,45.8007703 88.2980193,44.9569328 C88.2980193,44.4859944 87.994012,44.1113445 87.2938738,44.1113445 C86.3542146,44.1113445 85.8521419,44.8956583 85.8521419,45.5556723 Z" id="path-23"></path>
        <filter x="-460.0%" y="-380.0%" width="1020.0%" height="1020.0%" filterUnits="objectBoundingBox" id="filter-24">
            <feOffset dx="0" dy="4" in="SourceAlpha" result="shadowOffsetOuter1"></feOffset>
            <feGaussianBlur stdDeviation="7" in="shadowOffsetOuter1" result="shadowBlurOuter1"></feGaussianBlur>
            <feColorMatrix values="0 0 0 0 0.503594541   0 0 0 0 0.597691893   0 0 0 0 0.834980867  0 0 0 0.271625906 0" type="matrix" in="shadowBlurOuter1"></feColorMatrix>
        </filter>
        <path d="M91,42.1399491 L90.7090725,45.6641221 C90.6781942,46.0183973 90.6635696,46.3803793 90.665484,46.7430025 C90.6640062,46.7955241 90.6640062,46.8482418 90.665484,46.9007634 L90.3137354,46.9007634 C90.3076765,46.8091239 90.3049621,46.7162877 90.305626,46.6234097 C90.3051588,46.5144918 90.3078692,46.4056342 90.3137354,46.2977099 C90.1768473,46.7306334 89.9702645,46.9880479 89.7501267,47 C89.2564622,47 89,46.0788804 89,44.9109415 C89,43.3664122 89.4054739,42 89.99037,42 C90.3096807,42 90.4972124,42.3664122 90.5823619,42.7430025 L90.6330461,42.1399491 L91,42.1399491 Z M89.3781044,44.9007634 C89.3781044,45.6641221 89.524075,46.1984733 89.8281804,46.1984733 C90.1910796,46.1984733 90.4546376,45.2569975 90.4546376,44.0305344 C90.4546376,43.346056 90.3208312,42.8015267 90.0126711,42.8015267 C89.5940193,42.8015267 89.3750634,43.9414758 89.3750634,44.9007634 L89.3781044,44.9007634 Z" id="path-25"></path>
        <filter x="-1150.0%" y="-377.2%" width="2385.5%" height="1013.3%" filterUnits="objectBoundingBox" id="filter-26">
            <feOffset dx="0" dy="4" in="SourceAlpha" result="shadowOffsetOuter1"></feOffset>
            <feGaussianBlur stdDeviation="7" in="shadowOffsetOuter1" result="shadowBlurOuter1"></feGaussianBlur>
            <feColorMatrix values="0 0 0 0 0.503594541   0 0 0 0 0.597691893   0 0 0 0 0.834980867  0 0 0 0.271625906 0" type="matrix" in="shadowBlurOuter1"></feColorMatrix>
        </filter>
        <path d="M96.405,45.1956957 C96.4021258,45.4664134 96.4552731,45.7274696 96.5518544,45.9170341 C96.6484356,46.1065987 96.7798599,46.20781 96.915,46.1966967 C97.1725,46.1966967 97.29,45.8863864 97.29,45.5735736 C97.2812458,45.3163823 97.1942895,45.0965357 97.07125,45.0205205 L96.73,44.7077077 C96.4805175,44.5248484 96.3140522,44.0508956 96.3125,43.519019 C96.3125,42.7307307 96.63375,42 97.16875,42 C97.78125,42 97.975,42.8583584 98,43.3538539 L97.595,43.6016016 C97.5870034,43.3704071 97.5333078,43.1551286 97.4457997,43.0034212 C97.3582915,42.8517138 97.2441888,42.7760911 97.12875,42.7932933 C96.895,42.7932933 96.75375,43.0835836 96.75375,43.4064064 C96.7514291,43.6436945 96.8263469,43.8565119 96.93875,43.9319319 L97.25875,44.2247247 C97.57,44.5075075 97.74625,44.9754755 97.74625,45.5285285 C97.74625,46.1316316 97.5125,47 96.89,47 C96.2475,47 96,46.0640641 96,45.3933934 L96.405,45.1956957 Z" id="path-27"></path>
        <filter x="-1150.0%" y="-377.0%" width="2400.0%" height="1017.0%" filterUnits="objectBoundingBox" id="filter-28">
            <feOffset dx="0" dy="4" in="SourceAlpha" result="shadowOffsetOuter1"></feOffset>
            <feGaussianBlur stdDeviation="7" in="shadowOffsetOuter1" result="shadowBlurOuter1"></feGaussianBlur>
            <feColorMatrix values="0 0 0 0 0.503594541   0 0 0 0 0.597691893   0 0 0 0 0.834980867  0 0 0 0.271625906 0" type="matrix" in="shadowBlurOuter1"></feColorMatrix>
        </filter>
        <path d="M100,42.1399491 L99.7054656,45.6641221 C99.6746342,46.0183973 99.6600317,46.3803793 99.6619433,46.7430025 C99.6604677,46.7955241 99.6604677,46.8482418 99.6619433,46.9007634 L99.3107287,46.9007634 C99.305696,46.8088661 99.3033281,46.7161704 99.3036437,46.6234097 C99.3032322,46.5145739 99.3055987,46.4057838 99.3107287,46.2977099 C99.1742315,46.7312016 98.9678486,46.988758 98.7479757,47 C98.2560729,47 98,46.0788804 98,44.9109415 C98,43.3664122 98.4048583,42 98.9878543,42 C99.3076923,42 99.4939271,42.3664122 99.5789474,42.7430025 L99.6305668,42.1399491 L100,42.1399491 Z M98.3805668,44.9007634 C98.3805668,45.6641221 98.5263158,46.1984733 98.8299595,46.1984733 C99.1923077,46.1984733 99.4564777,45.2569975 99.4564777,44.0305344 C99.4564777,43.346056 99.3218623,42.8015267 99.0151822,42.8015267 C98.5981781,42.8015267 98.3775304,43.9414758 98.3775304,44.9007634 L98.3805668,44.9007634 Z" id="path-29"></path>
        <filter x="-1150.0%" y="-377.2%" width="2385.3%" height="1013.3%" filterUnits="objectBoundingBox" id="filter-30">
            <feOffset dx="0" dy="4" in="SourceAlpha" result="shadowOffsetOuter1"></feOffset>
            <feGaussianBlur stdDeviation="7" in="shadowOffsetOuter1" result="shadowBlurOuter1"></feGaussianBlur>
            <feColorMatrix values="0 0 0 0 0.503594541   0 0 0 0 0.597691893   0 0 0 0 0.834980867  0 0 0 0.271625906 0" type="matrix" in="shadowBlurOuter1"></feColorMatrix>
        </filter>
        <polygon id="path-31" points="102 47 103.242236 42 104 42 102.757764 47"></polygon>
        <filter x="-1150.0%" y="-380.0%" width="2400.0%" height="1020.0%" filterUnits="objectBoundingBox" id="filter-32">
            <feOffset dx="0" dy="4" in="SourceAlpha" result="shadowOffsetOuter1"></feOffset>
            <feGaussianBlur stdDeviation="7" in="shadowOffsetOuter1" result="shadowBlurOuter1"></feGaussianBlur>
            <feColorMatrix values="0 0 0 0 0.503594541   0 0 0 0 0.597691893   0 0 0 0 0.834980867  0 0 0 0.271625906 0" type="matrix" in="shadowBlurOuter1"></feColorMatrix>
        </filter>
        <path d="M104.668524,47 C104.239554,47 104,46.3691099 104,45.4293194 C104.000727,45.2410637 104.009311,45.0534292 104.025627,44.8691099 L104.286351,42.0078534 L104.69415,42.0078534 L104.440111,44.8403141 C104.426745,44.9945784 104.419656,45.151481 104.418942,45.3089005 C104.418942,45.8089005 104.513649,46.1858639 104.78663,46.1858639 C105.099721,46.1858639 105.285794,45.5549738 105.343733,44.8612565 L105.6,42 L106,42 L105.674652,45.6256545 C105.640711,45.9901313 105.624637,46.3625368 105.626741,46.7356021 C105.625117,46.789636 105.625117,46.8438718 105.626741,46.8979058 L105.236769,46.8979058 C105.230109,46.8036275 105.227125,46.7081179 105.227855,46.6125654 C105.227855,46.5628272 105.227855,46.460733 105.227855,46.3272251 C105.095671,46.7424878 104.889197,46.990839 104.668524,47 Z" id="path-33"></path>
        <filter x="-1150.0%" y="-380.0%" width="2383.7%" height="1019.3%" filterUnits="objectBoundingBox" id="filter-34">
            <feOffset dx="0" dy="4" in="SourceAlpha" result="shadowOffsetOuter1"></feOffset>
            <feGaussianBlur stdDeviation="7" in="shadowOffsetOuter1" result="shadowBlurOuter1"></feGaussianBlur>
            <feColorMatrix values="0 0 0 0 0.503594541   0 0 0 0 0.597691893   0 0 0 0 0.834980867  0 0 0 0.271625906 0" type="matrix" in="shadowBlurOuter1"></feColorMatrix>
        </filter>
        <path d="M107.703499,47 C106.582413,47 106,46.3662465 106,45.5626751 C106,44.5 106.92081,43.5598739 108.249079,43.5598739 C108.974217,43.5598739 109.400092,43.8119748 109.593462,44.0710784 L110.166667,42 L111,42 L109.869705,46.0808824 C109.799582,46.3246326 109.766371,46.5736853 109.770718,46.8231793 C109.767362,46.8593154 109.767362,46.8955866 109.770718,46.9317227 L108.974217,46.9317227 C108.960458,46.8686725 108.954293,46.8047988 108.955801,46.7408964 C108.955196,46.6659675 108.961349,46.5910952 108.974217,46.5168067 C108.668127,46.8153591 108.20121,46.9929052 107.703499,47 Z M106.85175,45.5556723 C106.85175,46.0808824 107.183241,46.4485294 107.873849,46.4485294 C108.697974,46.4485294 109.296501,45.8007703 109.296501,44.9569328 C109.296501,44.4859944 108.992634,44.1113445 108.292818,44.1113445 C107.353591,44.1113445 106.85175,44.8956583 106.85175,45.5556723 Z" id="path-35"></path>
        <filter x="-460.0%" y="-380.0%" width="1020.0%" height="1020.0%" filterUnits="objectBoundingBox" id="filter-36">
            <feOffset dx="0" dy="4" in="SourceAlpha" result="shadowOffsetOuter1"></feOffset>
            <feGaussianBlur stdDeviation="7" in="shadowOffsetOuter1" result="shadowBlurOuter1"></feGaussianBlur>
            <feColorMatrix values="0 0 0 0 0.503594541   0 0 0 0 0.597691893   0 0 0 0 0.834980867  0 0 0 0.271625906 0" type="matrix" in="shadowBlurOuter1"></feColorMatrix>
        </filter>
        <path d="M112,42.1399491 L111.705018,45.6641221 C111.674139,46.0183973 111.659515,46.3803793 111.661429,46.7430025 C111.659951,46.7955241 111.659951,46.8482418 111.661429,46.9007634 L111.312722,46.9007634 C111.307681,46.8088661 111.30531,46.7161704 111.305626,46.6234097 C111.305214,46.5145739 111.307584,46.4057838 111.312722,46.2977099 C111.176017,46.7312016 110.96932,46.988758 110.749113,47 C110.256462,47 110,46.0788804 110,44.9109415 C110,43.3664122 110.405474,42 110.989356,42 C111.309681,42 111.496199,42.3664122 111.581348,42.7430025 L111.633046,42.1399491 L112,42.1399491 Z M110.378104,44.9007634 C110.378104,45.6641221 110.524075,46.1984733 110.82818,46.1984733 C111.19108,46.1984733 111.455651,45.2569975 111.455651,44.0305344 C111.455651,43.346056 111.320831,42.8015267 111.013685,42.8015267 C110.596047,42.8015267 110.375063,43.9414758 110.375063,44.9007634 L110.378104,44.9007634 Z" id="path-37"></path>
        <filter x="-1150.0%" y="-377.2%" width="2385.3%" height="1013.3%" filterUnits="objectBoundingBox" id="filter-38">
            <feOffset dx="0" dy="4" in="SourceAlpha" result="shadowOffsetOuter1"></feOffset>
            <feGaussianBlur stdDeviation="7" in="shadowOffsetOuter1" result="shadowBlurOuter1"></feGaussianBlur>
            <feColorMatrix values="0 0 0 0 0.503594541   0 0 0 0 0.597691893   0 0 0 0 0.834980867  0 0 0 0.271625906 0" type="matrix" in="shadowBlurOuter1"></feColorMatrix>
        </filter>
        <path d="M115,46.9115164 L115.594059,42 L115.951485,42 L115.720792,43.91788 C115.8712,43.6680057 116.072625,43.5359363 116.279208,43.5517393 C116.761386,43.5517393 117,44.1898703 117,44.9639964 C117,46.1094939 116.59901,46.9986928 116.009901,46.9986928 C115.760567,47.0202606 115.52872,46.7733654 115.423762,46.37451 L115.358416,46.9097729 L115,46.9115164 Z M115.535644,45.5166946 C115.535644,46.0310352 115.70099,46.40415 115.986139,46.4250723 C116.317822,46.4250723 116.625743,45.9299106 116.625743,45.0302505 C116.625743,44.4531429 116.448515,44.1131551 116.140594,44.1131551 C115.832673,44.1131551 115.535644,44.6658533 115.535644,45.5271558 L115.535644,45.5166946 Z" id="path-39"></path>
        <filter x="-1132.1%" y="-380.0%" width="2382.1%" height="1018.2%" filterUnits="objectBoundingBox" id="filter-40">
            <feOffset dx="0" dy="4" in="SourceAlpha" result="shadowOffsetOuter1"></feOffset>
            <feGaussianBlur stdDeviation="7" in="shadowOffsetOuter1" result="shadowBlurOuter1"></feGaussianBlur>
            <feColorMatrix values="0 0 0 0 0.503594541   0 0 0 0 0.597691893   0 0 0 0 0.834980867  0 0 0 0.271625906 0" type="matrix" in="shadowBlurOuter1"></feColorMatrix>
        </filter>
        <polygon id="path-41" points="119 47 120.243523 42 121 42 119.756477 47"></polygon>
        <filter x="-1150.0%" y="-380.0%" width="2400.0%" height="1020.0%" filterUnits="objectBoundingBox" id="filter-42">
            <feOffset dx="0" dy="4" in="SourceAlpha" result="shadowOffsetOuter1"></feOffset>
            <feGaussianBlur stdDeviation="7" in="shadowOffsetOuter1" result="shadowBlurOuter1"></feGaussianBlur>
            <feColorMatrix values="0 0 0 0 0.503594541   0 0 0 0 0.597691893   0 0 0 0 0.834980867  0 0 0 0.271625906 0" type="matrix" in="shadowBlurOuter1"></feColorMatrix>
        </filter>
        <path d="M121.406441,44.7647698 C121.404332,44.8199622 121.404332,44.8754636 121.406441,44.930656 C121.397839,45.2581737 121.449549,45.5791301 121.54928,45.8172371 C121.649011,46.0553441 121.787857,46.1893379 121.932815,46.1873695 C122.186103,46.2055516 122.422823,45.9032685 122.546918,45.4031803 L122.853415,45.8530837 C122.664341,46.5822572 122.315123,47.0212603 121.941699,46.9992065 C121.42754,46.9992065 121,46.2652858 121,44.8577666 C121,43.0757468 121.56191,42 122.140478,42 C122.719045,42 123,42.7841892 123,43.8976374 C122.998583,44.1900663 122.978383,44.4804742 122.940033,44.7597429 L121.406441,44.7647698 Z M122.568018,44.0107417 C122.574072,43.9463011 122.577051,43.8805749 122.576902,43.8146944 C122.58396,43.5362836 122.536905,43.2647966 122.44809,43.0715102 C122.359276,42.8782239 122.237574,42.7824464 122.114936,42.8093235 C121.80099,42.8238627 121.531737,43.320306 121.461966,44.0132551 L122.568018,44.0107417 Z" id="path-43"></path>
        <filter x="-1150.0%" y="-375.6%" width="2400.0%" height="1015.6%" filterUnits="objectBoundingBox" id="filter-44">
            <feOffset dx="0" dy="4" in="SourceAlpha" result="shadowOffsetOuter1"></feOffset>
            <feGaussianBlur stdDeviation="7" in="shadowOffsetOuter1" result="shadowBlurOuter1"></feGaussianBlur>
            <feColorMatrix values="0 0 0 0 0.503594541   0 0 0 0 0.597691893   0 0 0 0 0.834980867  0 0 0 0.271625906 0" type="matrix" in="shadowBlurOuter1"></feColorMatrix>
        </filter>
        <path d="M50.3122321,16.8364562 C49.6948181,15.9508119 48.7080667,15.4259366 47.6571798,15.4241743 L17.5321327,15.4241743 C17.4858505,15.3068858 17.4411111,15.1879906 17.3963717,15.0707021 C16.8163022,13.5989726 16.2161771,12.0774357 15.7163299,10.549472 C14.5253361,6.90870886 11.9937028,3.94918296 8.18931066,1.75122887 L8.11371649,1.71266827 C6.32414028,0.928602777 4.35869193,0.179884497 2.17726024,0.0224287215 C1.45988701,-0.0289854093 0.779539506,-0.033805484 0.338316406,0.481942515 C-0.102906694,0.997690515 -0.0288552648,1.69820805 0.0961065223,2.44210625 C0.404654145,4.28176812 1.08500165,5.97682774 1.75300725,7.56102565 L1.81317404,7.67670744 C4.78911586,12.4582216 8.88662829,15.2394047 13.9869205,15.9447423 C14.1766773,15.9704494 14.2846689,16.0363238 14.5345925,16.5520718 C15.4054807,18.3076071 16.0844213,20.1593958 16.5586649,22.0726641 C17.3621701,25.3502922 17.5559264,28.7577889 17.129478,32.1112731 C17.129478,32.1257333 17.129478,32.1401935 17.1217643,32.1562605 C16.7679429,33.9984035 16.2695072,35.8071862 15.6314793,37.5643843 C15.1771271,38.8715643 14.6342621,40.1435108 14.0069761,41.3706367 C13.9695381,41.4328348 13.9365375,41.4978128 13.9082408,41.5650464 L13.9082408,41.5730799 C13.9082408,41.5730799 13.9082408,41.5730799 13.9082408,41.58272 C13.5163067,42.4146118 13.8461195,43.4198899 14.6448983,43.8280715 C15.4436771,44.2362531 16.4089407,43.8927681 16.8008748,43.0608763 L16.8240159,43.0142822 C17.2513543,42.1145349 16.9335503,42.7106175 17.2390124,42.0502673 C18.0957039,40.2622074 18.7898759,38.3945903 19.3124525,36.4718341 L43.4840732,36.4718341 C45.5588424,36.4495809 47.3506625,34.9543133 47.8237955,32.8503512 L50.8923016,19.9132706 C51.1510283,18.8489453 50.9381669,17.7198823 50.3122321,16.8364562 Z M12.292994,12.2991591 C9.96654497,11.3785249 4.59010264,8.7917514 3.5641818,4.25445436 C3.52459122,4.06313146 3.58251349,3.86406905 3.71742021,3.72781749 C3.85232692,3.59156593 4.04515333,3.53738002 4.22755919,3.58446397 C9.78141639,4.95979197 12.1556903,9.43764142 12.9887689,11.5568676 C13.0704469,11.7653582 13.0255849,12.0044466 12.8745523,12.1655767 C12.7235197,12.3267067 12.4950955,12.3791752 12.292994,12.2991591 Z M48.7355537,19.3075478 L45.6639621,32.2430218 C45.4228041,33.2967118 44.5210677,34.0420326 43.4809877,34.0473365 L19.86321,34.0473365 C19.8894365,33.9059476 19.9141203,33.762952 19.9372614,33.6215632 C20.1230797,32.4982606 20.2523322,31.3656012 20.3244887,30.2282306 L29.7737596,30.2282306 C30.1625296,30.2282306 30.9015012,29.6353614 30.9015012,28.9043167 C30.9015012,28.173272 30.1625296,27.5804028 29.7737596,27.5804028 L20.3923691,27.5804028 C20.3765995,26.3944962 20.2900391,25.2107583 20.1331891,24.0360412 L35.1208899,24.0360412 C35.5528566,24.0360412 36.3273111,23.443172 36.3273111,22.7121273 C36.3273111,21.9810826 35.555942,21.3882134 35.1208899,21.3882134 L19.6317992,21.3882134 C19.3829085,20.3680635 19.0600641,19.3690481 18.6660452,18.3997671 C18.5935365,18.2198176 18.5225705,18.0366548 18.4516046,17.8550973 L47.6571798,17.8550986 C48.0083674,17.8545491 48.3386359,18.0289175 48.5457969,18.3242526 C48.749284,18.6049352 48.8191135,18.9667829 48.7355537,19.3075478 Z" id="path-45"></path>
        <filter x="-45.1%" y="-43.2%" width="190.2%" height="204.5%" filterUnits="objectBoundingBox" id="filter-46">
            <feOffset dx="0" dy="4" in="SourceAlpha" result="shadowOffsetOuter1"></feOffset>
            <feGaussianBlur stdDeviation="7" in="shadowOffsetOuter1" result="shadowBlurOuter1"></feGaussianBlur>
            <feColorMatrix values="0 0 0 0 0.503594541   0 0 0 0 0.597691893   0 0 0 0 0.834980867  0 0 0 0.271625906 0" type="matrix" in="shadowBlurOuter1"></feColorMatrix>
        </filter>
        <path d="M20.0683261,12.0019607 C20.0971402,12.6165923 20.1898274,13.2246534 20.3442843,13.8123452 C20.4669323,14.2329237 20.6189093,14.7610184 21.0108499,14.9365229 L21.0441782,14.9523341 C21.4361188,15.1104463 21.8120618,14.8495612 22.1933374,14.5459858 C23.793095,13.2716015 24.899594,11.590869 25.4715073,9.54647836 C26.1287411,7.53529131 26.1727344,5.40552011 25.6048205,3.22199077 C25.4715073,2.71761289 25.3128647,2.21481613 24.9049265,2.04879833 C24.4969883,1.88278053 24.1050477,2.16896359 23.7397697,2.47728236 C20.9681897,4.80943716 19.7243782,7.9321529 20.0509954,11.7711169 L20.0683261,12.0019607 Z M23.8184245,4.82366725 C23.8975395,4.71958273 24.0215905,4.68196838 24.1331179,4.72824693 C24.2446452,4.77452549 24.3218667,4.89565835 24.3290138,5.03553759 C24.3850053,6.38581569 24.2290289,7.58588721 23.8624178,8.61361644 L23.8557522,8.63417102 L23.8557522,8.65314449 C23.4251508,10.0761542 22.8439055,11.2936181 22.1813392,12.1853708 C22.10222,12.2907359 21.9772739,12.3289805 21.8650443,12.2821852 C21.7528147,12.2353899 21.6755359,12.1128254 21.6694168,11.9719193 C21.5427693,9.22867286 22.2533283,6.87438235 23.8184245,4.82366725 Z" id="path-47"></path>
        <filter x="-383.1%" y="-146.2%" width="866.5%" height="453.8%" filterUnits="objectBoundingBox" id="filter-48">
            <feOffset dx="0" dy="4" in="SourceAlpha" result="shadowOffsetOuter1"></feOffset>
            <feGaussianBlur stdDeviation="7" in="shadowOffsetOuter1" result="shadowBlurOuter1"></feGaussianBlur>
            <feColorMatrix values="0 0 0 0 0.503594541   0 0 0 0 0.597691893   0 0 0 0 0.834980867  0 0 0 0.271625906 0" type="matrix" in="shadowBlurOuter1"></feColorMatrix>
        </filter>
        <path d="M14.9959592,19.543109 C15.0471517,18.8546444 14.6040161,18.3073151 14.1160871,17.8219475 C10.6637889,14.415769 4.7462492,14.0353923 0.92600456,16.99579 C0.705236654,17.1679062 0.0349340983,17.6842546 0.00133898214,18.508691 C-0.032256134,19.3331273 0.575655492,19.8856201 0.775626421,20.0732267 C2.56113001,21.7369878 4.7870984,22.7556245 7.13950128,22.985432 L7.18429477,22.985432 C9.68633104,23.1076344 11.950002,22.4604777 13.903318,21.0646158 C14.4440394,20.6825179 14.9447666,20.2315736 14.9959592,19.543109 Z M11.1069245,19.5826957 C9.88340432,19.8994687 8.62241916,20.0155227 7.36666826,19.926928 C6.14166528,19.8487018 4.93644949,19.5580989 3.79758711,19.0663473 C3.65643304,19.0133657 3.5654483,18.8656078 3.57514518,18.7051047 C3.58484206,18.5446016 3.69283984,18.410759 3.83918106,18.3778827 C6.26490945,17.7121321 8.82452718,17.8929494 11.1485185,18.8942311 C11.287557,18.9492432 11.3763718,19.0961319 11.3667628,19.2551801 C11.3571538,19.4142284 11.2514123,19.5475113 11.1069245,19.5826957 Z" id="path-49"></path>
        <filter x="-153.3%" y="-237.5%" width="406.7%" height="675.0%" filterUnits="objectBoundingBox" id="filter-50">
            <feOffset dx="0" dy="4" in="SourceAlpha" result="shadowOffsetOuter1"></feOffset>
            <feGaussianBlur stdDeviation="7" in="shadowOffsetOuter1" result="shadowBlurOuter1"></feGaussianBlur>
            <feColorMatrix values="0 0 0 0 0.503594541   0 0 0 0 0.597691893   0 0 0 0 0.834980867  0 0 0 0.271625906 0" type="matrix" in="shadowBlurOuter1"></feColorMatrix>
        </filter>
        <path d="M44.036152,38 C43.808041,38.0006347 43.5802288,38.018337 43.3542684,38.0529863 L26.6417476,38.0529863 C26.4152515,38.0183537 26.1869104,38.0006517 25.9582708,38 C23.7449483,38.0016457 21.8003253,39.6284394 21.1916845,41.9875355 C20.5830436,44.3466315 21.4576233,46.8673327 23.3354212,48.1661829 C25.213219,49.4650332 27.6399704,49.2278232 29.2837825,47.5847427 C30.9275946,45.9416623 31.3908071,43.2901946 30.4191915,41.0855655 L39.5911632,41.0855655 C38.62239,43.2882258 39.086925,45.9358754 40.7298136,47.5753838 C42.3727023,49.2148923 44.7965077,49.4496402 46.6709535,48.1507891 C48.5453993,46.851938 49.4170318,44.3336975 48.8074659,41.9781735 C48.1979001,39.6226495 46.2545982,37.999675 44.044118,38 L44.036152,38 Z M25.9582708,45.4922545 C24.9622327,45.4922545 24.1547843,44.5971161 24.1547843,43.492907 C24.1547843,42.3886979 24.9622327,41.4935595 25.9582708,41.4935595 C26.9543089,41.4935595 27.7617573,42.3886979 27.7617573,43.492907 C27.7600035,44.5963098 26.9535815,45.4903102 25.9582708,45.4922545 Z M44.036152,45.4922545 C43.0401139,45.4922545 42.2326655,44.5971161 42.2326655,43.492907 C42.2326655,42.3886979 43.0401139,41.4935595 44.036152,41.4935595 C45.0321901,41.4935595 45.8396386,42.3886979 45.8396386,43.492907 C45.8387601,44.5967125 45.0318261,45.4912807 44.036152,45.4922545 Z" id="path-51"></path>
        <filter x="-82.1%" y="-172.7%" width="264.3%" height="518.2%" filterUnits="objectBoundingBox" id="filter-52">
            <feOffset dx="0" dy="4" in="SourceAlpha" result="shadowOffsetOuter1"></feOffset>
            <feGaussianBlur stdDeviation="7" in="shadowOffsetOuter1" result="shadowBlurOuter1"></feGaussianBlur>
            <feColorMatrix values="0 0 0 0 0.503594541   0 0 0 0 0.597691893   0 0 0 0 0.834980867  0 0 0 0.271625906 0" type="matrix" in="shadowBlurOuter1"></feColorMatrix>
        </filter>
    </defs>
    <g id="Page-1" stroke="none" stroke-width="1" fill="none" fill-rule="evenodd">
        <g id="correo-contacto" transform="translate(-810.000000, -936.000000)">
            <g id="Recurso-2" transform="translate(823.000000, 945.000000)">
                <g id="Path">
                    <use fill="black" fill-opacity="1" filter="url(#filter-2)" xlink:href="#path-1"></use>
                    <use fill="#27D8DB" fill-rule="evenodd" xlink:href="#path-1"></use>
                </g>
                <g id="Shape" fill-rule="nonzero">
                    <use fill="black" fill-opacity="1" filter="url(#filter-4)" xlink:href="#path-3"></use>
                    <use fill="#27D8DB" xlink:href="#path-3"></use>
                </g>
                <g id="Shape" fill-rule="nonzero">
                    <use fill="black" fill-opacity="1" filter="url(#filter-6)" xlink:href="#path-5"></use>
                    <use fill="#27D8DB" xlink:href="#path-5"></use>
                </g>
                <g id="Path">
                    <use fill="black" fill-opacity="1" filter="url(#filter-8)" xlink:href="#path-7"></use>
                    <use fill="#27D8DB" fill-rule="evenodd" xlink:href="#path-7"></use>
                </g>
                <g id="Path">
                    <use fill="black" fill-opacity="1" filter="url(#filter-10)" xlink:href="#path-9"></use>
                    <use fill="#27D8DB" fill-rule="evenodd" xlink:href="#path-9"></use>
                </g>
                <g id="Shape" fill-rule="nonzero">
                    <use fill="black" fill-opacity="1" filter="url(#filter-12)" xlink:href="#path-11"></use>
                    <use fill="#27D8DB" xlink:href="#path-11"></use>
                </g>
                <g id="Path">
                    <use fill="black" fill-opacity="1" filter="url(#filter-14)" xlink:href="#path-13"></use>
                    <use fill="#27D8DB" fill-rule="evenodd" xlink:href="#path-13"></use>
                </g>
                <g id="Path">
                    <use fill="black" fill-opacity="1" filter="url(#filter-16)" xlink:href="#path-15"></use>
                    <use fill="#27D8DB" fill-rule="evenodd" xlink:href="#path-15"></use>
                </g>
                <g id="Shape" fill-rule="nonzero">
                    <use fill="black" fill-opacity="1" filter="url(#filter-18)" xlink:href="#path-17"></use>
                    <use fill="#27D8DB" xlink:href="#path-17"></use>
                </g>
                <g id="Shape" fill-rule="nonzero">
                    <use fill="black" fill-opacity="1" filter="url(#filter-20)" xlink:href="#path-19"></use>
                    <use fill="#27D8DB" xlink:href="#path-19"></use>
                </g>
                <g id="Path">
                    <use fill="black" fill-opacity="1" filter="url(#filter-22)" xlink:href="#path-21"></use>
                    <use fill="#27D8DB" fill-rule="evenodd" xlink:href="#path-21"></use>
                </g>
                <g id="Shape" fill-rule="nonzero">
                    <use fill="black" fill-opacity="1" filter="url(#filter-24)" xlink:href="#path-23"></use>
                    <use fill="#27D8DB" xlink:href="#path-23"></use>
                </g>
                <g id="Shape" fill-rule="nonzero">
                    <use fill="black" fill-opacity="1" filter="url(#filter-26)" xlink:href="#path-25"></use>
                    <use fill="#27D8DB" xlink:href="#path-25"></use>
                </g>
                <g id="Path">
                    <use fill="black" fill-opacity="1" filter="url(#filter-28)" xlink:href="#path-27"></use>
                    <use fill="#27D8DB" fill-rule="evenodd" xlink:href="#path-27"></use>
                </g>
                <g id="Shape" fill-rule="nonzero">
                    <use fill="black" fill-opacity="1" filter="url(#filter-30)" xlink:href="#path-29"></use>
                    <use fill="#27D8DB" xlink:href="#path-29"></use>
                </g>
                <g id="Path">
                    <use fill="black" fill-opacity="1" filter="url(#filter-32)" xlink:href="#path-31"></use>
                    <use fill="#27D8DB" fill-rule="evenodd" xlink:href="#path-31"></use>
                </g>
                <g id="Path">
                    <use fill="black" fill-opacity="1" filter="url(#filter-34)" xlink:href="#path-33"></use>
                    <use fill="#27D8DB" fill-rule="evenodd" xlink:href="#path-33"></use>
                </g>
                <g id="Shape" fill-rule="nonzero">
                    <use fill="black" fill-opacity="1" filter="url(#filter-36)" xlink:href="#path-35"></use>
                    <use fill="#27D8DB" xlink:href="#path-35"></use>
                </g>
                <g id="Shape" fill-rule="nonzero">
                    <use fill="black" fill-opacity="1" filter="url(#filter-38)" xlink:href="#path-37"></use>
                    <use fill="#27D8DB" xlink:href="#path-37"></use>
                </g>
                <g id="Shape" fill-rule="nonzero">
                    <use fill="black" fill-opacity="1" filter="url(#filter-40)" xlink:href="#path-39"></use>
                    <use fill="#27D8DB" xlink:href="#path-39"></use>
                </g>
                <g id="Path">
                    <use fill="black" fill-opacity="1" filter="url(#filter-42)" xlink:href="#path-41"></use>
                    <use fill="#27D8DB" fill-rule="evenodd" xlink:href="#path-41"></use>
                </g>
                <g id="Shape" fill-rule="nonzero">
                    <use fill="black" fill-opacity="1" filter="url(#filter-44)" xlink:href="#path-43"></use>
                    <use fill="#27D8DB" xlink:href="#path-43"></use>
                </g>
                <g id="Shape" fill-rule="nonzero">
                    <use fill="black" fill-opacity="1" filter="url(#filter-46)" xlink:href="#path-45"></use>
                    <use fill="#27D8DB" xlink:href="#path-45"></use>
                </g>
                <g id="Shape" fill-rule="nonzero">
                    <use fill="black" fill-opacity="1" filter="url(#filter-48)" xlink:href="#path-47"></use>
                    <use fill="#27D8DB" xlink:href="#path-47"></use>
                </g>
                <g id="Shape" fill-rule="nonzero">
                    <use fill="black" fill-opacity="1" filter="url(#filter-50)" xlink:href="#path-49"></use>
                    <use fill="#27D8DB" xlink:href="#path-49"></use>
                </g>
                <g id="Shape" fill-rule="nonzero">
                    <use fill="black" fill-opacity="1" filter="url(#filter-52)" xlink:href="#path-51"></use>
                    <use fill="#27D8DB" xlink:href="#path-51"></use>
                </g>
            </g>
        </g>
    </g>
</svg>