<?xml version="1.0" encoding="UTF-8"?>
<svg width="729px" height="666px" viewBox="0 0 729 666" version="1.1" xmlns="http://www.w3.org/2000/svg" xmlns:xlink="http://www.w3.org/1999/xlink">
    <!-- Generator: Sketch 52.4 (67378) - http://www.bohemiancoding.com/sketch -->
    <title>Group 3</title>
    <desc>Created with Sketch.</desc>
    <g id="Page-1" stroke="none" stroke-width="1" fill="none" fill-rule="evenodd">
        <g id="correo-contacto" transform="translate(-173.000000, -286.000000)">
            <g id="Group-3" transform="translate(173.000000, 175.000000)">
                <g transform="translate(-77.000000, 111.000000)">
                    <g id="cc">
                        <g id="BACKGROUND">
                            <path d="M0,310.265143 C0,202.458857 137.61448,-27.9 333.332852,3.252 C473.986554,25.6731429 415.561751,181.263429 676.425194,239.230286 C879.562289,284.393143 821.326257,573.133714 536.111281,588.728571 C219.597976,606.152571 0,512.376 0,310.265143 Z" id="Path" fill="#C4FEFF"></path>
                            <path d="M676.330809,383.770286 C585.607188,458.048571 646.731425,585.541714 682.465885,573.737143 C714.387159,563.214857 637.160706,395.989714 523.180428,409.189714 C335.428216,430.932 282.53442,517.637143 154.585045,483.732 C25.7673204,449.600571 0.755086311,306.701143 125.816257,225.144 C250.405498,143.888571 52.1953412,4.836 36.6405632,49.7725714 C27.7494219,75.2862857 126.118291,138.042857 196.322441,78.3411429 C266.526591,18.6394286 359.51547,10.9457143 417.902519,119.638286 C476.289568,228.330857 595.442187,163.971429 671.53601,149.017714 C747.629833,134.064 871.275217,224.144571 676.330809,383.770286 Z" id="Path" stroke="#633A88" stroke-width="0.25"></path>
                        </g>
                    </g>
                    <g id="cc-copy" transform="translate(9.000000, 27.000000)">
                        <g id="BACKGROUND">
                            <path d="M0,310.265143 C0,202.458857 137.61448,-27.9 333.332852,3.252 C473.986554,25.6731429 415.561751,181.263429 676.425194,239.230286 C879.562289,284.393143 821.326257,573.133714 536.111281,588.728571 C219.597976,606.152571 0,512.376 0,310.265143 Z" id="Path" fill="#C4FEFF"></path>
                            <path d="M676.330809,383.770286 C585.607188,458.048571 646.731425,585.541714 682.465885,573.737143 C714.387159,563.214857 637.160706,395.989714 523.180428,409.189714 C335.428216,430.932 282.53442,517.637143 154.585045,483.732 C25.7673204,449.600571 0.755086311,306.701143 125.816257,225.144 C250.405498,143.888571 52.1953412,4.836 36.6405632,49.7725714 C27.7494219,75.2862857 126.118291,138.042857 196.322441,78.3411429 C266.526591,18.6394286 359.51547,10.9457143 417.902519,119.638286 C476.289568,228.330857 595.442187,163.971429 671.53601,149.017714 C747.629833,134.064 871.275217,224.144571 676.330809,383.770286 Z" id="Path" stroke="#633A88" stroke-width="0.25"></path>
                        </g>
                    </g>
                    <ellipse id="Oval" stroke="#633A88" stroke-width="0.25" fill="#633A88" cx="132.497978" cy="251.471538" rx="11.4979775" ry="11.4715385"></ellipse>
                    <ellipse id="Oval" stroke="#633A88" stroke-width="0.25" fill="#633A88" cx="590.497978" cy="403.471538" rx="16.4979775" ry="16.4715385"></ellipse>
                    <polygon id="Path" stroke="#633A88" stroke-width="0.25" fill="#633A88" points="685.106067 251 678.763596 277.083077 659 257.351154"></polygon>
                    <polygon id="Path" stroke="#633A88" stroke-width="0.25" fill="#633A88" points="193.953708 26.9461538 171 40.9111538 171 13"></polygon>
                    <polygon id="Path" stroke="#633A88" stroke-width="0.25" fill="#633A88" points="683.953708 546.965 661 560.911154 661 533"></polygon>
                    <g id="Group-4" opacity="0.5492234" transform="translate(287.000000, 285.000000)" stroke="#633A88" stroke-width="2">
                        <path d="M0,59 L59.3655274,59 C59.3655274,59 58.8091267,34.8106293 93.3785394,36.4599046 C93.3785394,36.4599046 83.2907541,10.2694132 106.635389,2.13298847 C119.193132,-2.95476746 133.951707,1.33109768 140.938697,12.0946111 C140.938697,12.0946111 148.43801,1.09944263 160.533675,5.80537475 C172.629341,10.5113069 168.032988,20.2090455 168.032988,20.2090455 C168.032988,20.2090455 187.918263,3.98017678 202.626592,15.2392293 C217.334922,26.4982819 204.344177,40.3961749 204.344177,40.3961749 C204.344177,40.3961749 230.954641,41.9574888 231.728764,59 L264,59" id="Path"></path>
                        <path d="M12,68 L131,68" id="Path"></path>
                        <path d="M143,68 L251,68" id="Path"></path>
                        <path d="M40,75 L220,75" id="Path"></path>
                        <path d="M106,11 C106.44186,10.6787994 106.932817,10.3805417 107.423773,10.082284 C111.25323,7.78799416 116.874677,6.64084922 125,7.0997072" id="Path"></path>
                        <path d="M102.504677,34 C100.190574,28.8414678 99.8680055,23.291903 101.574677,18" id="Path"></path>
                        <path d="M71.0170005,58 C71.0170005,58 69.668148,43.7635792 91,46.3035104" id="Path"></path>
                    </g>
                    <g id="Group-4-Copy" opacity="0.5492234" transform="translate(0.000000, 363.000000)" stroke="#633A88" stroke-width="2">
                        <path d="M0,30 L29.6827637,30 C29.6827637,30 29.4045634,17.70032 46.6892697,18.5389345 C46.6892697,18.5389345 41.6453771,5.22173551 53.3176945,1.08457041 C59.5965661,-1.50242413 66.9758534,0.67682933 70.4693485,6.14980227 C70.4693485,6.14980227 74.2190049,0.559038623 80.2668377,2.95188547 C86.3146706,5.34473231 84.0164941,10.2757858 84.0164941,10.2757858 C84.0164941,10.2757858 93.9591313,2.0238187 101.313296,7.74876068 C108.667461,13.4737027 102.172088,20.5404279 102.172088,20.5404279 C102.172088,20.5404279 115.477321,21.3343163 115.864382,30 L132,30" id="Path"></path>
                        <path d="M72,34.5 L126,34.5" id="Path"></path>
                        <path d="M20,37.5 L110,37.5" id="Path"></path>
                    </g>
                    <g id="cont" transform="translate(194.000000, 136.000000)">
                        <path d="M192.416194,47.8135411 C205.015164,44.0447821 205.015164,17.6220543 186.199598,7.55822542 C174.55384,1.34598535 163.882016,7.55822542 156.52571,12.6729697 L157.706863,11.6168889 L159.426788,9.85675424 L160.27639,8.96633317 L160.980937,8.03449716 C163.093144,5.55989991 164.934083,2.86637646 166.472264,0 C164.607165,2.60304932 162.467412,4.99817153 160.089892,7.14407608 L159.219568,7.95166729 L158.287079,8.6971361 C157.665419,9.1941153 157.043759,9.71180198 156.4221,10.1673662 C155.116614,11.0784948 153.831851,11.9896233 152.4642,12.7765071 C150.413193,13.9910264 148.288536,15.0768158 146.102549,16.0275794 C144.85923,11.575474 142.932085,3.60309924 124.468793,2.52631096 C107.24882,1.53235255 91.8523821,20.7074669 84.496076,29.3217731 C84.496076,29.3217731 84.496076,29.1561134 84.496076,29.0732835 C85.0410333,25.9879045 85.8451267,22.9538863 86.8998267,20.003413 C87.3971544,18.5124754 88.0602581,17.0836602 88.7026398,15.61343 C89.0341916,14.9093762 89.4279094,14.2053223 89.7801832,13.5426834 L90.3603989,12.4244801 L90.9820585,11.4098143 C92.623982,8.67108451 94.555277,6.11634174 96.7427715,3.78946644 C94.231151,5.85435482 91.9458491,8.17970316 89.9252371,10.7264679 L89.1378015,11.6790113 L88.4539759,12.6729697 L87.0656026,14.7437164 C86.2160011,16.1518242 85.3456775,17.5599319 84.6204079,19.0301621 C83.2748846,21.6375519 82.1318116,24.3443903 81.2012798,27.1267816 C80.9940599,26.2156531 80.766118,25.3045245 80.5588981,24.3726885 C80.3516782,23.4408525 80.3102342,22.7782136 80.1651803,22.0327448 L79.9786824,20.8524192 L79.9786824,19.6720936 C79.6990839,16.4787207 79.7616045,13.2646387 80.1651803,10.0845364 C79.3517513,13.2274701 78.8793302,16.4487905 78.7560851,19.692801 L78.7560851,20.935249 L78.7560851,22.1569896 C78.7560851,22.9645808 78.7560851,23.7928795 78.7560851,24.6211781 C78.901139,26.257068 79.0254709,27.8929579 79.3155788,29.5288478 C79.4606327,30.4399763 79.6471306,31.3303974 79.8336285,32.241526 C79.8336285,32.241526 79.8336285,32.4486006 79.8336285,32.552138 C61.1838384,31.4753497 52.8950428,49.9464102 54.1176402,75.4787168 C55.6925114,108.175807 104.472073,189.928886 88.1017021,106.912652 L112.014877,77.9221979 C112.014877,77.9221979 160.980937,89.3113047 188.644792,80.5106313 C216.308648,71.7099579 192.416194,47.8135411 192.416194,47.8135411 Z" id="Path" fill="#70483C"></path>
                        <path d="M138.956197,154 C140.208592,155.239492 163.901444,161.519587 163.901444,161.519587 L175.173,179.120378 C175.173,179.120378 223.195166,204.839844 230.606881,211.119938 C243.911013,222.275369 247.031735,331.763859 232.023525,530 L180.120987,530 L119,240.599198 L138.956197,154 Z" id="Path" fill="#633A88"></path>
                        <g id="Group" transform="translate(133.000000, 169.000000)" fill="#87BAB4" opacity="0.37">
                            <path d="M41.0204713,17.2057363 C41.0204713,17.2057363 31.0614139,-2.21086743 29.8114088,0.208709346 C28.5614036,2.62828612 26.0818852,22.0648863 27.3523822,25.7242462 C28.6228793,29.3836062 29.8114088,50 29.8114088,50 C29.8114088,50 29.8114088,8.70722281 32.3114191,10.0069955 C34.8114293,11.3067681 41.0204713,23.364659 43.4999897,19.7252956 L46,14.8661455 L41.0204713,17.2057363 Z" id="Path" style="mix-blend-mode: multiply;"></path>
                            <path d="M81.631847,90 C81.631847,90 79.823102,137.265469 88.658925,177.265469 C88.658925,177.265469 92.4427363,185.768463 88.658925,186.966068 C84.8751138,188.163673 84.8751138,192.954092 81.0705123,195.449102 C77.2659109,197.944112 67.5776909,201.217565 68.0142845,204.411178 C68.4508781,207.60479 83.6069133,210 83.6069133,210 L98.7629485,207.58483 L105,195.449102 L102.484389,165.149701 L81.631847,90" id="Path" style="mix-blend-mode: multiply;"></path>
                            <path d="M22.712544,52 C22.712544,52 92.9788312,160.515118 77.8715795,361 L28.9331771,341.573713 L0,119.201748 L22.7332106,52" id="Path" style="mix-blend-mode: multiply;"></path>
                            <path d="M74.3673148,259.265272 C74.3673148,259.265272 96.0741584,270.037771 114.800422,259.084728 C133.526686,248.131684 109.805381,231 109.805381,231 L63,251.06052 L74.3673148,259.084728" id="Path" style="mix-blend-mode: multiply;"></path>
                        </g>
                        <path d="M172.579322,41.5867256 C172.579322,41.5867256 177.571153,120.510537 168.840584,139.297993 C160.110016,158.085448 138.889598,155.569455 138.889598,155.569455 C138.889598,155.569455 151.379447,220.696552 162.59566,242 L87.7387376,158.085448 L84,99.2277116 L90.1627543,36.5959854 C90.1627543,36.5959854 155.118185,16.5505334 172.579322,41.5867256 Z" id="Path" fill="#E5AD93"></path>
                        <g id="Group" transform="translate(80.000000, 39.000000)" fill="#D0A18C" opacity="0.27">
                            <path d="M86.4114465,108.963458 C86.4114465,108.963458 51.3603219,135.335594 21.337107,88.9413194 C21.337107,88.9413194 37.5953888,136.680056 68.8755811,125.365892 C100.155773,114.051729 86.4114465,108.963458 86.4114465,108.963458 Z" id="Path" style="mix-blend-mode: multiply;"></path>
                            <path d="M76.4174457,182.122865 C76.4174457,182.122865 48.8669732,127.806608 36.3384114,122.780389 C23.8098495,117.75417 0.0509155518,111.466226 0.0509155518,111.466226 L7.55156773,150.41425 C7.55156773,150.41425 70.1737709,196.27074 76.4174457,182.122865" id="Path" style="mix-blend-mode: multiply;"></path>
                            <path d="M36.3384114,8.45976736 C37.5953888,9.72149306 47.6099958,8.45976736 53.8742768,14.6649757 C60.1385577,20.870184 81.4247492,36.0936285 98.9194022,27.3029167 C116.414055,18.5122049 87.6066054,10.9625347 87.6066054,10.9625347 L50.1033445,0.910097222 L36.3384114,8.45976736 Z" id="Path" style="mix-blend-mode: multiply;"></path>
                            <path d="M3.40972408,63.7895417 L5.05821906,69.99475 C5.05821906,69.99475 12.5588712,81.3089132 21.337107,75.0209688 C30.1153428,68.7330243 20.0801296,61.2040382 20.0801296,61.2040382 L3.40972408,63.7688576" id="Path" style="mix-blend-mode: multiply;"></path>
                        </g>
                        <path d="M75.4622606,154 C75.4622606,154 115.597509,161.52 125.631321,174.06022 C135.665133,186.60044 215.853047,280.331868 209.659336,530 L52.0500323,530 C54.4655797,516.054945 74.3061012,409.390769 59.1521545,338.467253 C43.8743336,266.985934 14,255.643956 14,255.643956 L71.6840968,184.141978 L75.4622606,154 Z" id="Path" fill="#633A88"></path>
                        <g id="Group" transform="translate(47.000000, 176.000000)" fill="#87BAB4" opacity="0.37">
                            <path d="M87.146442,15.2398952 C87.146442,15.2398952 77.1379115,-3.59391772 74.6203018,1.42981065 C72.102692,6.45353902 68.4294582,30.3731017 68.4294582,30.3731017 L25.7332733,10.2161669 C25.7332733,10.2161669 67.1087449,40.3585371 73.3614969,33.9910131 C79.614249,27.623489 74.6203018,2.60821607 77.1379115,5.04772203 L87.146442,15.2398952 Z" id="Path" style="mix-blend-mode: multiply;"></path>
                            <path d="M22.6997599,111.745097 C22.6997599,111.745097 40.6944787,154.622515 48.2266718,189.788614 C55.7588649,224.954713 55.7382287,211.123954 60.7528121,204.839125 C65.7673954,198.554296 65.7673954,197.31387 65.7673954,206.100226 C65.7673954,214.886582 85.8257287,196.052769 77.0553669,204.839125 C68.2850051,213.625482 99.6106739,206.100226 90.8403121,211.041259 C82.0699503,215.982292 130.936343,217.243393 158.506233,204.839125 C186.076123,192.434858 119.669007,233.782416 119.669007,233.782416 L55.6969564,247.592501 L24.3712877,236.304617 C24.3712877,236.304617 5.92257373,106.597326 22.6584877,111.807118" id="Path" style="mix-blend-mode: multiply;"></path>
                            <path d="M163.335091,258.384214 C163.335091,258.384214 122.248525,287.720307 103.490269,292.744035 C103.490269,292.744035 102.231464,296.506663 95.9787123,297.767763 C89.7259602,299.028864 78.4173525,307.81522 75.9203789,305.293019 C75.9203789,305.293019 11.9483282,320.364204 1.96043381,310.316747 C-8.02746056,300.269291 25.7745456,258.839037 25.7745456,258.839037 C25.7745456,258.839037 160.590484,240.377352 163.376363,258.384214" id="Path" style="mix-blend-mode: multiply;"></path>
                        </g>
                        <path d="M208.160543,382 C176.290341,394.782988 138.640462,400.039353 138.640462,400.039353 L138.640462,400.407503 C134.889821,399.139431 117.796735,393.47401 114.476495,395.682911 C110.725854,398.17815 90.8249108,411.840608 92.0546292,414.315395 C93.2843477,416.790181 100.78563,427.998305 100.78563,427.998305 L134.15199,415.0926 L130.052928,428.611889 C177.192134,437.324774 207.935095,436.036248 228,431.209392 C225.089666,414.029056 215.395386,394.864799 208.160543,382 Z" id="Path" fill="#E5AD93"></path>
                        <g id="Group" transform="translate(89.000000, 377.000000)" fill="#D0A18C" opacity="0.27">
                            <path d="M106.971429,54.5453818 C106.971429,53.2876727 141.942857,35.7622182 141.942857,35.7622182 L143.197714,58.2978909 L125.691429,60.8545455 L106.971429,54.5453818 Z" id="Path" style="mix-blend-mode: multiply;"></path>
                            <path d="M121.947429,14.4636364 L120.836571,14.7316727 C118.656,8.19570909 113.862857,-4.73189091 111.949714,1.9484 C110.933442,6.81141472 111.510634,11.8733257 113.595429,16.3811273 C95.0811429,20.6697091 51.3462857,30.3808727 35.7531429,29.4118182 C15.7577143,28.1541091 8.24914286,25.6593091 3.25028571,21.9068 C-1.74857143,18.1542909 0.761142857,43.1847636 0.761142857,43.1847636 L14.1942857,49.3702182 L61.9817143,43.1847636 L114.459429,29.4118182 L126.020571,16.5873091 L121.947429,14.4636364 Z" id="Path" style="mix-blend-mode: multiply;"></path>
                        </g>
                        <path d="M268.473842,275.600484 C263.449861,205.498539 218.854279,211.106695 218.854279,211.106695 C204.381907,283.126134 229.54316,370.774182 229.54316,370.774182 C222.679935,374.921746 215.472435,378.474242 208,381.392565 C215.298211,394.361425 225.077399,413.680696 227.889175,431 C259.542321,423.391877 264.69035,407.082866 264.69035,407.082866 C270.124171,363.473809 271.391028,319.448533 268.473842,275.600484 Z" id="Path" fill="#633A88"></path>
                        <path d="M266.017785,347 C266.017785,347 248.939934,359.604113 243.964014,362.120775 C238.988093,364.637438 229.363885,383.959584 229.363885,383.959584 C229.363885,383.959584 222.831709,364.658237 217.855789,373.560151 C212.879869,382.462066 231.227295,430.091468 231.227295,430.091468 L237.534224,435 C237.611904,428.478665 237.324763,421.958114 236.674188,415.469865 C239.461696,412.227235 243.454482,410.312539 247.690835,410.186953 C256.393576,410.186953 270.072239,411.455684 270.072239,411.455684 L285,358.397778 L266.017785,347 Z" id="Path" fill="#87BAB4" opacity="0.37" style="mix-blend-mode: multiply;"></path>
                        <path d="M221.553245,436 C225.433846,434.333762 229.59964,433.422563 233.825187,433.315715 C241.508129,432.964693 226.723657,374.633107 222.113892,371.494558 C217.504127,368.356009 210.132655,381.240578 204.588478,379.753897 C199.044301,378.267216 201.577595,385.948402 201.577595,385.948402 C201.577595,385.948402 217.25495,417.189354 221.553245,436 Z" id="Path" fill="#AE93C6"></path>
                        <path d="M200,393.11985 C202.477279,390.639548 225.346049,385.658445 228.826524,383.157644 C232.307,380.656843 236.893038,408.67811 235.848895,412.736787 C234.804752,416.795463 226.738239,421.756068 227.04534,422.98597 C227.352441,424.215872 228.601317,431.697776 226.103564,427.967073 C223.605811,424.23637 226.103564,424.215872 218.589832,427.331624 C211.076101,430.447375 200,393.11985 200,393.11985 Z" id="Path" fill="#A3D6CE" opacity="0.56" style="mix-blend-mode: multiply;"></path>
                        <path d="M271.455227,355.030685 L269.1278,360.046027 C268.036175,362.543379 260.209431,363.802374 260.209431,363.802374 C265.564572,361.366941 267.891999,357.961461 268.715866,354.721096 C269.446512,351.457157 269.092091,348.043337 267.706628,345 C267.706628,347.517991 253.948036,358.787032 248.943039,360.046027 C243.938042,361.305023 231.435848,383.863744 231.435848,383.863744 C212.898822,395.751963 171.046337,402.273973 137,407.660822 C137,422.644932 138.091625,443.057169 143.179009,458 C214.670138,437.360731 242.76403,403.925114 242.76403,403.925114 C252.665391,405.661672 262.861188,403.888315 271.599404,398.909772 C274.112201,397.650776 275.348002,388.879087 274.112201,385.12274 C272.876399,381.366393 276.604401,377.589406 277.860799,370.076712 C279.117198,362.564018 271.455227,355.030685 271.455227,355.030685 Z" id="Path" fill="#E5AD93"></path>
                        <path d="M142.798691,406.104754 C142.798691,406.104754 150.447171,447.046944 158.09565,454.600778 C165.74413,462.154612 147.883669,459.575254 147.883669,459.575254 L138.953439,445.900563 C138.953439,445.900563 135.129199,403.627752 142.798691,406.104754" id="Path" fill="#D0A18C" opacity="0.27" style="mix-blend-mode: multiply;"></path>
                        <path d="M96.4622233,413.569217 C96.4622233,413.569217 80.1482165,260.596858 43.7824369,253.147375 C7.41665723,245.697891 1.13886222,276.960959 1.13886222,276.960959 C-8.89734954,394.770105 50.7004018,473 50.7004018,473 C82.258469,471.549885 113.554089,466.566146 144,458.142304 C138.981894,443.202066 137.804808,422.79337 137.804808,407.81186 C114.448932,411.588191 96.4622233,413.569217 96.4622233,413.569217 Z" id="Path" fill="#633A88"></path>
                        <path d="M144.455524,406.146183 C140.213435,406.841341 135.878585,406.799089 131.651607,406.021385 C123.883897,404.752602 125.249648,460.350266 129.048144,464.135815 C132.846639,467.921365 143.324511,457.895898 148.488757,460.350266 C153.653004,462.804633 152.970128,455.295932 152.970128,455.295932 C152.970128,455.295932 144.412844,423.971547 144.455524,406.146183 Z" id="Path" fill="#AE93C6"></path>
                        <path d="M167.793475,71.2264196 C165.352398,70.75361 162.95703,70.0699622 160.63436,69.1831789 C158.337501,68.2434205 156.109319,67.1441943 153.966157,65.8935614 C149.720176,63.3316518 145.775075,60.3023624 142.204754,56.8624376 L141.61157,56.2494654 C154.02752,63.8094559 168.693478,72.1867427 180.884427,59.0078403 C195.775385,42.866239 173.418493,26.7246377 173.418493,26.7246377 L128.704709,18 L92.6636815,27.9301497 L79,41.5789974 L81.4954628,92.5578522 L85.2182023,104 L100.129615,91.3319078 C100.129615,91.3319078 116.268305,65.2601568 111.297834,51.6113091 C111.297834,51.6113091 118.211493,45.726776 129.359257,49.6702305 C130.831989,51.406985 132.345631,52.9802804 133.920636,54.5331433 C135.495641,56.0860062 137.725194,58.0679496 139.7502,59.7025422 C143.786688,62.9634919 148.178017,65.7599253 152.841153,68.0389641 C155.175484,69.1658182 157.588657,70.121845 160.061631,70.8995011 C162.537887,71.6495667 165.078246,72.1693987 167.650293,72.452364 C170.206498,72.7282721 172.785022,72.7282721 175.341227,72.452364 C177.876975,72.156695 180.3733,71.588096 182.786706,70.7564742 C180.336328,71.3795125 177.826969,71.7424951 175.300318,71.8393918 C172.783235,71.9058899 170.266331,71.7003718 167.793475,71.2264196 Z" id="Path" fill="#70483C"></path>
                        <path d="M104.351811,93.6411047 C107.776565,102.14212 105.689289,110.987224 99.7111672,113.395845 C93.7330454,115.804466 86.0729437,110.784819 82.6481892,102.364766 C79.2234347,93.9447124 81.3107111,85.0186463 87.2888328,82.6100253 C93.2669546,80.2014043 100.927056,85.1400894 104.351811,93.6411047 Z" id="Path" fill="#D0A18C"></path>
                        <path d="M128,89.9003984 C128.703077,88.4704296 129.807761,87.2677748 131.183777,86.4342629 C132.614864,85.518004 134.281764,85.0205567 135.989861,85 C137.703806,85.0021828 139.377787,85.5086816 140.795944,86.4541833 C141.475569,86.9012369 142.101445,87.4224894 142.661597,88.0079681 C143.171847,88.6281965 143.620054,89.2952914 144,90 C143.249683,89.7011952 142.60076,89.3227092 141.972117,89.0039841 C141.343473,88.685259 140.653992,88.3665339 139.944233,88.187251 C139.599493,88.187251 139.275032,87.9681275 138.970849,87.8486056 L137.977186,87.6494024 C137.309703,87.5185327 136.629847,87.4584274 135.949303,87.4701195 C133.133398,87.609276 130.398966,88.4452527 128,89.9003984 Z" id="Path" fill="#A57563"></path>
                        <path d="M158,89.9003984 C158.716915,88.4739517 159.82538,87.2732987 161.2,86.4342629 C162.627834,85.5149678 164.293546,85.0172452 166,85 C167.711401,85.0046105 169.382558,85.5108955 170.8,86.4541833 C171.472421,86.9014914 172.090765,87.4227901 172.643038,88.0079681 C173.158964,88.6278584 173.613358,89.294913 174,90 C173.23038,89.7011952 172.582278,89.3227092 171.974684,89.0039841 C171.367089,88.685259 170.658228,88.3665339 169.949367,88.187251 L168.956962,87.8486056 L167.98481,87.6494024 C167.66087,87.5640486 167.327686,87.5172332 166.992405,87.5099602 C166.669617,87.4701715 166.343041,87.4701715 166.020253,87.5099602 C163.184232,87.626318 160.424646,88.4488132 158,89.9003984 Z" id="Path" fill="#A57563"></path>
                        <path d="M124,78.8078635 C124.587159,77.316818 125.42805,75.9222438 126.490842,74.6769294 C127.644944,73.3809316 129.053515,72.2987463 130.642247,71.487464 C131.450436,71.0623962 132.289672,70.6900286 133.153846,70.3730724 C134.040583,70.0898425 134.977588,69.9659376 135.91453,70.0080131 C137.796087,70.0958599 139.58943,70.773411 141,71.9293778 L141,72.1983689 C140.152243,72.3712941 139.292014,72.4868813 138.426129,72.5442145 C137.637363,72.6979237 136.869353,72.7171374 136.142857,72.8708465 C134.654808,72.9767541 133.181202,73.2148172 131.742369,73.5817515 C130.240226,74.0830373 128.837623,74.8100928 127.590965,75.73368 C126.29809,76.6710504 125.152391,77.7703614 124.186813,79 L124,78.8078635 Z" id="Path" fill="#6263B7"></path>
                        <path d="M178,78.8078744 C177.378215,77.3098459 176.501517,75.9150572 175.403636,74.6771741 C174.264467,73.3751896 172.864786,72.2920175 171.282424,71.4878892 C170.480113,71.0628455 169.64698,70.690499 168.789091,70.3735608 C167.90207,70.0888399 166.964827,69.9649342 166.027879,70.0085221 C164.167183,70.1006515 162.394867,70.7778898 161,71.9297781 L161,72.1987539 C161.834923,72.3702302 162.681934,72.4858005 163.534545,72.54458 C164.338182,72.6982805 165.100606,72.717493 165.821818,72.8711935 C167.299045,72.9770951 168.761934,73.2151447 170.190303,73.5820582 C171.681522,74.0833157 173.073924,74.81033 174.311515,75.7338649 C175.594987,76.6711822 176.732354,77.770431 177.690909,79 L178,78.8078744 Z" id="Path" fill="#6263B7"></path>
                        <path d="M129.094152,119 C129.094152,119 134.254087,134.461341 155,131.873846 C155,131.873846 147.270714,142.181407 135.655551,140.887659 C124.040388,139.593912 129.094152,119 129.094152,119 Z" id="Path" fill="#EFF3F8"></path>
                        <path d="M149.947749,91 C149.947749,91 163.172157,112.604167 161.915838,113.916667 C160.659519,115.229167 149,119 149,119 L149.947749,91 Z" id="Path" fill="#CB8D8B"></path>
                    </g>
                    <circle id="Oval" fill="#633A88" cx="521" cy="113" r="11"></circle>
                    <circle id="Oval-Copy" fill="#633A88" cx="129.5" cy="598.5" r="15.5"></circle>
                </g>
            </g>
        </g>
    </g>
</svg>