<?xml version="1.0" encoding="UTF-8"?>
<svg width="720px" height="646px" viewBox="0 0 720 646" version="1.1" xmlns="http://www.w3.org/2000/svg" xmlns:xlink="http://www.w3.org/1999/xlink">
    <!-- Generator: Sketch 52.4 (67378) - http://www.bohemiancoding.com/sketch -->
    <title>Group 3</title>
    <desc>Created with Sketch.</desc>
    <defs>
        <ellipse id="path-1" cx="133.208427" cy="132.768462" rx="132.871011" ry="132.658077"></ellipse>
    </defs>
    <g id="Page-1" stroke="none" stroke-width="1" fill="none" fill-rule="evenodd">
        <g id="Solicitud-de-producto" transform="translate(-178.000000, -284.000000)">
            <g id="Group-3" transform="translate(178.000000, 173.000000)">
                <g transform="translate(-77.000000, 111.000000)">
                    <g id="cc">
                        <g id="BACKGROUND">
                            <path d="M0,310.265143 C0,202.458857 137.61448,-27.9 333.332852,3.252 C473.986554,25.6731429 415.561751,181.263429 676.425194,239.230286 C879.562289,284.393143 821.326257,573.133714 536.111281,588.728571 C219.597976,606.152571 0,512.376 0,310.265143 Z" id="Path" fill="#C4FEFF"></path>
                            <path d="M676.330809,383.770286 C585.607188,458.048571 646.731425,585.541714 682.465885,573.737143 C714.387159,563.214857 637.160706,395.989714 523.180428,409.189714 C335.428216,430.932 282.53442,517.637143 154.585045,483.732 C25.7673204,449.600571 0.755086311,306.701143 125.816257,225.144 C250.405498,143.888571 52.1953412,4.836 36.6405632,49.7725714 C27.7494219,75.2862857 126.118291,138.042857 196.322441,78.3411429 C266.526591,18.6394286 359.51547,10.9457143 417.902519,119.638286 C476.289568,228.330857 595.442187,163.971429 671.53601,149.017714 C747.629833,134.064 871.275217,224.144571 676.330809,383.770286 Z" id="Path" stroke="#633A88" stroke-width="0.25"></path>
                        </g>
                        <g id="OBJECTS" transform="translate(78.000000, 58.000000)">
                            <ellipse id="Oval" fill="#FFFFFF" cx="516.458427" cy="135.918462" rx="132.871011" ry="132.658077"></ellipse>
                            <ellipse id="Oval" fill="#F3F5F4" cx="527.217978" cy="132.733462" rx="132.871011" ry="132.658077"></ellipse>
                            <g id="Group" transform="translate(383.250000, 3.150000)">
                                <mask id="mask-2" fill="white">
                                    <use xlink:href="#path-1"></use>
                                </mask>
                                <use id="Mask" stroke="#633A88" stroke-width="0.25" xlink:href="#path-1"></use>
                                <g mask="url(#mask-2)">
                                    <g transform="translate(69.300000, 21.183077)">
                                        <polygon id="Path" stroke="none" fill="#B14330" fill-rule="evenodd" points="36.261573 244.884754 14.2894382 244.884754 16.0260674 196.808215 35.185618 196.808215"></polygon>
                                        <polygon id="Path" stroke="none" fill="#27D8DB" fill-rule="evenodd" points="23.5766292 115.279754 0.679550562 194.113215 8.55101124 201.915523 0.679550562 211.395138 42.3775281 216.050138"></polygon>
                                        <polygon id="Path" stroke="none" fill="#27D8DB" fill-rule="evenodd" points="36.261573 246.6186 101.102022 246.6186 123.470562 105.668215 87.4921348 103.406677 47.0777528 105.668215 23.5766292 115.279754"></polygon>
                                        <polygon id="Path" stroke="none" fill="#B14330" fill-rule="evenodd" points="58.0260674 126.681677 87.4921348 103.406677 76.6948315 67.7685999 45.4166292 71.8582153"></polygon>
                                        <polygon id="Path" stroke="none" fill="#5F281C" fill-rule="evenodd" points="51.8534831 99.8259076 66.2561798 81.8843691 45.4166292 71.8582153"></polygon>
                                        <path d="M24.218427,52.9178307 C22.7649438,69.2951384 28.1824719,89.3851384 44.5860674,90.8362922 C60.9896629,92.287446 80.8665169,72.800523 82.3388764,56.4043691 C83.811236,40.0082153 89.8894382,12.7566768 67.5964045,10.7966768 C35.2233708,7.95090758 25.6719101,36.5216768 24.218427,52.9178307 Z" id="Path" stroke="none" fill="#B14330" fill-rule="evenodd"></path>
                                        <path d="M53.9676404,38.3497537 C54.858145,42.3697292 57.5624681,45.7516745 61.2916854,47.5089845" id="Path" stroke="#422E2D" stroke-width="1" fill="none"></path>
                                        <path d="M29.1262921,39.3485999 C31.7678204,40.1356834 34.6194,39.7729634 36.9788764,38.3497537" id="Path" stroke="#422E2D" stroke-width="1" fill="none"></path>
                                        <path d="M34.5438202,67.7685999 C40.8644559,68.2518235 47.2128475,68.2518235 53.5334831,67.7685999 C53.5334831,67.7685999 47.7573034,74.8359076 39.2062921,74.1197537 C37.2431461,73.9689845 34.5438202,67.7685999 34.5438202,67.7685999 Z" id="Path" stroke="none" fill="#FFFFFF" fill-rule="evenodd"></path>
                                        <ellipse id="Oval" stroke="none" fill="#422E2D" fill-rule="evenodd" cx="53.5334831" cy="52.2393691" rx="2.30292135" ry="4.165"></ellipse>
                                        <ellipse id="Oval" stroke="none" fill="#422E2D" fill-rule="evenodd" cx="32.8638202" cy="49.657446" rx="2.30292135" ry="4.165"></ellipse>
                                        <path d="M40.1689888,52.2393691 C38.8687265,56.529335 34.6551442,59.2542134 30.2022472,58.6847537 C30.2022472,58.6847537 40.6031461,72.0089845 40.1689888,52.2393691 Z" id="Path" stroke="none" fill="#9A2532" fill-rule="evenodd"></path>
                                        <path d="M87.4921348,63.0193691 C107.878652,38.6701384 115.636854,33.4120614 87.4921348,13.9062922 C87.4921348,13.9062922 84.7361798,-4.60063088 60.5177528,1.35475374 C23.1802247,10.5516768 30.0323596,13.9062922 28.8242697,34.222446 C28.8242697,34.222446 48.9653933,36.8043691 65.1991011,27.3247537 C65.1991011,27.3247537 65.7653933,38.745523 72.4476404,44.5689845 L71.2961798,56.7812922 L87.4921348,63.0193691 Z" id="Path" stroke="none" fill="#422E2D" fill-rule="evenodd"></path>
                                        <path d="M87.4921348,14.0193691 C88.924809,10.6926312 88.924809,6.924184 87.4921348,3.59744604" id="Path" stroke="#422E2D" stroke-width="1" fill="none"></path>
                                        <path d="M85.8310112,16.7709076 C85.8310112,16.7709076 94.7029213,12.8320614 95.4391011,8.7612922" id="Path" stroke="#422E2D" stroke-width="1" fill="none"></path>
                                        <ellipse id="Oval" stroke="none" fill="#B14330" fill-rule="evenodd" transform="translate(82.279776, 60.953357) rotate(-69.290000) translate(-82.279776, -60.953357) " cx="82.2797763" cy="60.9533573" rx="12.29016" ry="9.54954868"></ellipse>
                                        <polygon id="Path" stroke="none" fill="#27D8DB" fill-rule="evenodd" points="93.3249438 105.668215 85.8310112 86.7843691 44.0386517 96.5089845 55.8364045 132.052831"></polygon>
                                        <polygon id="Path" stroke="none" fill="#FFD788" fill-rule="evenodd" points="45.4166292 100.655138 68.8233708 99.392446 47.0777528 105.668215"></polygon>
                                        <polygon id="Path" stroke="none" fill="#27D8DB" fill-rule="evenodd" points="123.470562 105.668215 128.793708 209.981677 95.8921348 227.188215 93.3249438 105.668215"></polygon>
                                        <path d="M74.8565416,53.3775311 L88.6378096,53.3700634 C89.3613025,53.369734 89.9480765,53.9559739 89.9484059,54.6794668 C89.9484061,54.6798647 89.9484061,54.6802626 89.9484059,54.6806605 L89.9316078,86.2901385 C89.9312782,87.0131653 89.3452312,87.5992119 88.6222044,87.5995411 L74.840937,87.6082031 C74.117444,87.6085325 73.5306701,87.0222926 73.5303407,86.2987996 C73.5303405,86.2984017 73.5303405,86.2980039 73.5303407,86.297606 L73.5471387,54.6881279 C73.5474684,53.9651011 74.1335153,53.3790545 74.8565422,53.3787253 Z" id="Rectangle" stroke="none" fill="#A5BBAA" fill-rule="evenodd" transform="translate(81.739373, 70.489133) rotate(17.310000) translate(-81.739373, -70.489133) "></path>
                                        <path d="M77.2804814,54.2201702 L91.6468349,54.2124361 C92.3703279,54.2121067 92.9571018,54.7983466 92.9574312,55.5218396 C92.9574314,55.5222374 92.9574314,55.5226353 92.9574312,55.5230332 L92.9406331,87.1325113 C92.9403035,87.8555381 92.3542566,88.4415847 91.6312297,88.4419139 L77.2648768,88.4508422 C76.5413838,88.4511716 75.9546099,87.8649317 75.9542805,87.1414388 C75.9542803,87.1410409 75.9542803,87.140643 75.9542805,87.1402451 L75.9710786,55.5307671 C75.9714082,54.8077402 76.5574551,54.2216936 77.280482,54.2213644 Z" id="Rectangle" stroke="none" fill="#E8DFCF" fill-rule="evenodd" transform="translate(84.455856, 71.331639) rotate(17.310000) translate(-84.455856, -71.331639) "></path>
                                        <ellipse id="Oval" stroke="none" fill="#A5BBAA" fill-rule="evenodd" cx="84.3964045" cy="57.9685999" rx="1.73662921" ry="1.73384615"></ellipse>
                                        <path d="M122.16809,205.515138 L90.6067416,87.8585999 L85.7932584,90.0259076 C85.7932584,90.0259076 81.1685393,180.9586 101.762697,215.673215 L122.16809,205.515138 Z" id="Path" stroke="none" fill="#B14330" fill-rule="evenodd"></path>
                                        <path d="M90.6067416,87.8585999 L100.044944,67.2597537 C100.044944,67.2597537 75.2979775,73.1209076 85.8310112,90.0259076 L90.6067416,87.8585999 Z" id="Path" stroke="none" fill="#B14330" fill-rule="evenodd"></path>
                                        <path d="M99.9316854,67.2597537 L88.9078652,57.6482153 C88.9078652,57.6482153 85.0382022,64.0747537 97.9496629,68.5035999 L99.9316854,67.2597537 Z" id="Path" stroke="none" fill="#B14330" fill-rule="evenodd"></path>
                                        <path d="M85.6988764,75.250523 L91.9469663,71.1797537 L85.4157303,63.0193691 C85.4157303,63.0193691 83.112809,67.2032153 89.0588764,71.462446 L85.6988764,75.250523 Z" id="Path" stroke="none" fill="#B14330" fill-rule="evenodd"></path>
                                        <path d="M97.9496629,68.5035999 L86.3406742,59.2501384 C86.3406742,59.2501384 82.9995506,65.092446 96.1564045,69.1443691 L97.9496629,68.5035999 Z" id="Path" stroke="none" fill="#B14330" fill-rule="evenodd"></path>
                                        <polygon id="Path" stroke="none" fill="#168889" fill-rule="evenodd" points="36.261573 246.6186 23.5766292 115.279754 44.0386517 246.6186"></polygon>
                                    </g>
                                </g>
                            </g>
                            <rect id="Rectangle" fill="#86593E" x="150.048539" y="487.983462" width="105.688989" height="15.4915385"></rect>
                            <polygon id="Path" fill="#B58E67" points="296.114157 579.519231 282.957303 579.519231 220.967191 407.114615 234.124045 407.114615"></polygon>
                            <polygon id="Path" fill="#B58E67" points="189.972135 579.519231 203.128989 579.519231 218.626517 407.114615 205.469663 407.114615"></polygon>
                            <polygon id="Path" fill="#B58E67" points="112.484494 579.519231 125.660225 579.519231 187.650337 407.114615 174.474607 407.114615"></polygon>
                            <path d="M129.15236,285.142308 L238.408989,285.142308 C244.05942,285.142308 248.64,289.715547 248.64,295.356923 L248.64,408.641154 L131.606292,408.641154 C127.905364,408.641154 124.905169,405.645767 124.905169,401.950769 L124.905169,289.363846 C124.900073,288.239398 125.346517,287.159807 126.144678,286.366467 C126.942839,285.573127 128.026141,285.132211 129.15236,285.142308 Z" id="Path" fill="#FFB84F"></path>
                            <path d="M178.778427,408.66 L282.485393,408.66 C287.023385,408.670392 290.696641,412.346191 290.696629,416.876923 C290.696629,421.415004 287.011882,425.093846 282.466517,425.093846 L178.778427,425.093846 L178.778427,408.641154 L178.778427,408.66 Z" id="Path" fill="#FFB84F"></path>
                            <path d="M133.833708,390.982308 L133.833708,292.115385 C133.833722,288.271608 130.718246,285.152696 126.868315,285.142308 C123.011009,285.142308 119.884045,288.264261 119.884045,292.115385 L119.884045,392.282692 C119.884045,410.403792 134.597678,425.093846 152.747865,425.093846 L176.909663,425.093846 C179.092424,425.093846 181.185786,424.228137 182.729231,422.687165 C184.272677,421.146193 185.139775,419.056187 185.139775,416.876923 C185.139775,414.69766 184.272677,412.607653 182.729231,411.066681 C181.185786,409.525709 179.092424,408.66 176.909663,408.66 L151.520899,408.66 C141.74948,408.649599 133.833702,400.738072 133.833708,390.982308 Z" id="Path" fill="#FFD788"></path>
                            <path d="M245.695281,407.076923 L190.10427,407.076923 C177.849051,407.073778 166.331614,401.229799 159.105041,391.34783 C151.878468,381.465862 149.811086,368.733296 153.540674,357.078077 L162.733483,328.413077 L244.222921,318.575385 L245.695281,407.076923 Z" id="Path" fill="#633A88"></path>
                            <polygon id="Path" fill="#EFEBDF" points="253.982022 211.698846 277.40764 295.036538 253.982022 295.036538 229.348315 253.367692"></polygon>
                            <path d="M276.331685,291.210769 L336.415281,302.801154 L334.79191,307.814231 C334.79191,307.814231 281.466067,320.497692 253.982022,295.036538 L276.331685,291.210769 Z" id="Path" fill="#C6796E"></path>
                            <path d="M336.415281,302.801154 L362.275955,300.464231 L355.102921,306.890769 C349.425774,312.010413 340.911629,312.397517 334.79191,307.814231 L336.415281,302.801154 Z" id="Path" fill="#C6796E"></path>
                            <path d="M362.275955,300.464231 L366.957303,310.961538 C366.957303,310.961538 360.142921,312.506923 360.25618,302.216923 L362.275955,300.464231 Z" id="Path" fill="#5F281C"></path>
                            <path d="M356.556404,301.84 L360.803596,312.959231 C360.803596,312.959231 352.988764,313.845 356.556404,301.84 Z" id="Path" fill="#5F281C"></path>
                            <path d="M362.275955,300.464231 L371.053483,307.399615 C371.053483,307.399615 365.126292,310.528077 361.615281,301.745769 L362.275955,300.464231 Z" id="Path" fill="#5F281C"></path>
                            <rect id="Rectangle" fill="#FFFFFF" x="240.636404" y="307.946154" width="109.143371" height="7.74576923"></rect>
                            <path d="M253.982022,211.698846 L228.064719,201.258077 L197.447191,201.258077 L158.335281,212.961538 L175.92809,287.177692 L159.883146,327.244615 L235.653034,327.244615 L229.839101,285.330769 L230.084494,284.595769 C231.524907,280.397248 234.581897,276.944995 238.578876,275.003077 C245.355506,271.610769 249.281798,267.012308 249.904719,262.131154 C250.114609,259.691838 249.968362,257.235016 249.470562,254.837692 C247.189522,242.958253 247.935989,230.696925 251.641348,219.180769 L253.982022,211.698846 Z" id="Path" fill="#FFFFFF"></path>
                            <path d="M239.937978,277.170385 C244.647348,274.627864 248.001279,270.149343 249.11191,264.920385 C249.11191,264.920385 239.730337,273.269231 207.640449,270.253846 C170.472809,266.786154 193.67191,294.226154 180.382921,327.150385 L235.709663,327.150385 L229.89573,285.236538 L230.141124,284.501538 C231.481348,280.28 235.955056,279.168077 239.937978,277.170385 Z" id="Path" fill="#EFEBDF"></path>
                            <polygon id="Path" fill="#F8A094" points="223.345618 221.706154 197.447191 201.258077 211.170337 173.535385 234.444944 173.535385"></polygon>
                            <polygon id="Path" fill="#5F281C" points="228.782022 198.110769 216.115955 182.336538 234.444944 173.535385"></polygon>
                            <path d="M209.867865,116.62 C213.803207,113.583434 218.584175,111.838709 223.553258,111.625769 C230.197753,111.625769 247.243146,118.617692 253.585618,134.599231 C259.92809,150.580769 262.325393,164.112308 255.982921,182.242308 L228.00809,173.535385 L209.867865,116.62 Z" id="Path" fill="#70483C"></path>
                            <path d="M253.075955,156.875385 C254.340674,171.273846 249.602697,188.913846 235.162247,190.214231 C220.721798,191.514615 199.18382,174.345769 197.919101,159.947308 C196.654382,145.548846 195.389663,121.576538 214.907865,119.861538 C243.505618,117.336154 251.79236,142.458077 253.075955,156.875385 Z" id="Path" fill="#F8A094"></path>
                            <path d="M241.617978,145.266154 C243.975787,144.084101 246.80454,144.362855 248.885393,145.982308" id="Path" stroke="#422E2D"></path>
                            <path d="M196.08809,157.685769 C196.08809,157.685769 230.065618,157.29 237.61618,127.701538 C237.61618,127.701538 242.788315,128.587308 249.904719,136.559231 C249.904719,136.559231 246.506966,119.07 218.19236,119.07 C189.254831,119.07 196.08809,157.685769 196.08809,157.685769 Z" id="Path" fill="#70483C"></path>
                            <path d="M237.012135,125.477692 C237.012135,125.477692 242.675056,148.526538 206.37573,156.196923" id="Path" stroke="#70483C"></path>
                            <path d="M209.867865,152.314615 C209.867865,152.314615 204.204944,169.935769 212.699326,186.671154 C212.699326,186.671154 185.102022,190.289615 166.905169,169.935769 C166.452135,151.579615 175.644944,133.751154 187.197303,121.896923 C196.862022,111.983846 224.327191,108.704615 231.273708,127.701538 C231.273708,127.701538 212.359551,127.136154 209.867865,152.314615 Z" id="Path" fill="#70483C"></path>
                            <path d="M258.606742,183.486154 C258.606742,183.486154 271.461573,147.527692 243.354607,123.404615" id="Path" stroke="#422E2D"></path>
                            <path d="M164.073708,167.278462 C164.073708,167.278462 166.886292,111.625769 214.737978,115.715385" id="Path" stroke="#422E2D"></path>
                            <path d="M243.996404,169.935769 C238.441829,170.348248 232.864239,170.348248 227.309663,169.935769 C227.309663,169.935769 232.387416,176.155 239.900225,175.589615 C241.617978,175.382308 243.996404,169.935769 243.996404,169.935769 Z" id="Path" fill="#FFFFFF"></path>
                            <ellipse id="Oval" fill="#422E2D" cx="227.309663" cy="156.272308" rx="2.03865169" ry="3.675"></ellipse>
                            <ellipse id="Oval" fill="#422E2D" cx="245.468764" cy="154.010769" rx="2.03865169" ry="3.675"></ellipse>
                            <path d="M239.050787,156.272308 C240.199925,160.053741 243.923759,162.447217 247.847191,161.926154 C247.847191,161.926154 238.673258,173.667308 239.050787,156.272308 Z" id="Path" fill="#9A2532"></path>
                            <ellipse id="Oval" fill="#B14330" transform="translate(202.098580, 164.015344) rotate(-20.710000) translate(-202.098580, -164.015344) " cx="202.09858" cy="164.015344" rx="8.3983185" ry="10.8010148"></ellipse>
                            <rect id="Rectangle" fill="#709480" x="197.145169" y="134.316538" width="4.09617978" height="21.8803846"></rect>
                            <rect id="Rectangle" fill="#B4C6B6" x="194.40809" y="134.316538" width="4.09617978" height="21.8803846"></rect>
                            <path d="M203.563146,139.254231 L203.563146,128.662692 C203.698036,124.027303 206.169122,119.773636 210.132135,117.355 C212.15191,116.13 217.909213,112.549231 217.909213,112.549231 C217.909213,112.549231 207.923596,112.549231 203.506517,114.264231 L202.33618,114.697692 C197.654453,116.50277 194.565021,120.994732 194.559101,126.005385 L194.559101,139.310769 L203.563146,139.254231 Z" id="Path" fill="#709480"></path>
                            <path d="M200.844944,139.254231 L200.844944,128.662692 C200.847939,124.136914 203.372856,119.988737 207.395056,117.901538 L217.909213,112.492692 L214.700225,112.228846 C209.973567,111.794212 205.209807,112.438673 200.769438,114.113462 L199.599101,114.546923 C194.917375,116.352001 191.827943,120.843963 191.822022,125.854615 L191.822022,139.16 L200.844944,139.254231 Z" id="Path" fill="#B4C6B6"></path>
                            <ellipse id="Oval" fill="#B4C6B6" cx="198.277753" cy="161.247692" rx="11.5901124" ry="11.5715385"></ellipse>
                            <ellipse id="Oval" fill="#F1EADF" cx="195.993708" cy="161.247692" rx="11.5901124" ry="11.5715385"></ellipse>
                            <ellipse id="Oval" fill="#B4C6B6" cx="195.993708" cy="161.247692" rx="7.26741573" ry="7.25576923"></ellipse>
                            <ellipse id="Oval" fill="#F1EADF" cx="195.993708" cy="161.247692" rx="3.30337079" ry="3.29807692"></ellipse>
                            <polygon id="Path" fill="#F1EADF" points="237.219775 184.409615 209.641348 181.243462 195.238652 161.813077 196.76764 160.701154 210.660674 179.471923 237.446292 182.543846"></polygon>
                            <rect id="Rectangle" fill="#B4C6B6" x="229.839101" y="180.282308" width="9.19280899" height="5.08846154" rx="0.64"></rect>
                            <polygon id="Path" fill="#EFEBDF" points="177.891236 257.570385 172.605843 273.118462 169.47236 262.376154"></polygon>
                            <polygon id="Path" fill="#FFFFFF" points="158.335281 212.867308 124.942921 296.035385 152.521348 296.035385 177.891236 257.570385"></polygon>
                            <path d="M305.401348,315.691923 L281.466067,315.691923 C281.466067,309.09297 286.824163,303.743462 293.433708,303.743462 C300.043253,303.743462 305.401348,309.09297 305.401348,315.691923 Z" id="Path" fill="#B7C9B9"></path>
                            <path d="M156.466517,290.061154 L272.575281,302.801154 L270.95191,307.814231 C270.95191,307.814231 180.345169,338.703077 124.942921,296.035385 L156.466517,290.061154 Z" id="Path" fill="#F8A094"></path>
                            <path d="M272.575281,302.801154 L298.417079,300.464231 L291.262921,306.890769 C285.585774,312.010413 277.071629,312.397517 270.95191,307.814231 L272.575281,302.801154 Z" id="Path" fill="#F8A094"></path>
                            <path d="M298.417079,300.464231 L303.117303,310.999231 C303.117303,310.999231 296.302921,312.544615 296.41618,302.254615 L298.417079,300.464231 Z" id="Path" fill="#F8A094"></path>
                            <path d="M292.697528,301.84 L296.963596,312.959231 C296.963596,312.959231 289.092135,313.845 292.697528,301.84 Z" id="Path" fill="#F8A094"></path>
                            <path d="M298.417079,300.464231 L307.194607,307.399615 C307.194607,307.399615 301.286292,310.528077 297.756404,301.745769 L298.417079,300.464231 Z" id="Path" fill="#F8A094"></path>
                            <path d="M405.974831,281.900769 L299.625169,281.900769 C296.436589,281.900761 293.388854,280.589227 291.199395,278.274902 C289.009937,275.960577 287.872173,272.847908 288.053933,269.669615 L292.206742,200.711538 C292.547366,194.57955 297.626709,189.781348 303.777978,189.780769 L410.12764,189.780769 C413.31622,189.780778 416.363955,191.092311 418.553414,193.406636 C420.742872,195.720962 421.880636,198.83363 421.698876,202.011923 L417.546067,270.97 C417.205443,277.101988 412.1261,281.90019 405.974831,281.900769 Z" id="Path" fill="#70927F"></path>
                            <path d="M412.638202,281.900769 L306.288539,281.900769 C303.100172,281.895005 300.054046,280.582371 297.862844,278.269975 C295.671642,275.957579 294.527616,272.848307 294.698427,269.669615 L298.851236,200.711538 C299.210705,194.580846 304.29031,189.790212 310.441348,189.780769 L416.791011,189.780769 C419.979591,189.780778 423.027326,191.092311 425.216785,193.406636 C427.406243,195.720962 428.544007,198.83363 428.362247,202.011923 L424.209438,270.97 C423.868814,277.101988 418.789471,281.90019 412.638202,281.900769 Z" id="Path" fill="#A5BBAA"></path>
                            <path d="M375.640449,255.836538 L342.531236,255.836538 L356.462022,306.721154 C356.672833,307.51213 356.504025,308.355996 356.00507,309.005444 C355.506114,309.654892 354.73352,310.036369 353.913708,310.038077 L321.540674,310.038077 L321.540674,315.8427 L381.039101,315.842692 C383.663883,315.846336 386.140184,314.627524 387.735709,312.546687 C389.331233,310.46585 389.863399,307.761106 389.174831,305.232308 L375.640449,255.836538 Z M373.092135,297.543077 C368.922075,297.543077 365.541573,294.167993 365.541573,290.004615 C365.541573,285.841238 368.922075,282.466154 373.092135,282.466154 C377.262195,282.466154 380.642697,285.841238 380.642697,290.004615 C380.642904,294.13873 377.308184,297.501736 373.16764,297.543077 L373.092135,297.543077 Z" id="Shape" fill="#70927F" fill-rule="nonzero"></path>
                            <path d="M369.732135,235.878462 L350.723596,235.878462 C348.547572,235.878456 346.460948,236.74278 344.924038,238.280762 C343.387129,239.818744 342.526222,241.904008 342.531236,244.076538 L342.531214,255.836538 L377.943371,255.836538 L377.943371,244.076538 C377.943371,239.548866 374.267075,235.878462 369.732135,235.878462 Z" id="Path" fill="#70927F"></path>
                            <path d="M375.187416,235.878462 L356.178876,235.878462 C354.002853,235.878456 351.916229,236.74278 350.379319,238.280762 C348.84241,239.818744 347.981503,241.904008 347.986517,244.076538 L347.986495,255.836538 L383.398652,255.836538 L383.398652,244.076538 C383.398652,239.548866 379.722356,235.878462 375.187416,235.878462 Z" id="Path" fill="#E3E3E3"></path>
                            <path d="M396.838652,304.723462 L383.51191,255.836538 L347.986517,255.836538 L349.968539,263.148846 L362.426966,309.076923 C362.849644,310.620362 362.555922,312.271721 361.62682,313.575493 C360.697718,314.879265 359.231409,315.697684 357.63236,315.805 L388.306517,315.805 C391.05627,315.826057 393.656991,314.55933 395.332878,312.382689 C397.008764,310.206047 397.566108,307.371078 396.838652,304.723462 Z M375.885843,297.543077 C371.715783,297.543077 368.335281,294.167993 368.335281,290.004615 C368.335281,285.841238 371.715783,282.466154 375.885843,282.466154 C380.055903,282.466154 383.436404,285.841238 383.436404,290.004615 C383.436404,294.167993 380.055903,297.543077 375.885843,297.543077 Z" id="Shape" fill="#E3E3E3" fill-rule="nonzero"></path>
                            <path d="M375.187416,235.878462 L356.178876,235.878462 C354.002853,235.878456 351.916229,236.74278 350.379319,238.280762 C348.84241,239.818744 347.981503,241.904008 347.986517,244.076538 L347.986495,255.836538 L383.398652,255.836538 L383.398652,244.076538 C383.398652,239.548866 379.722356,235.878462 375.187416,235.878462 Z" id="Path" fill="#A5BBAA"></path>
                            <path d="M396.838652,304.723462 L383.51191,255.836538 L347.986517,255.836538 L349.968539,263.148846 L362.426966,309.076923 C362.849644,310.620362 362.555922,312.271721 361.62682,313.575493 C360.697718,314.879265 359.231409,315.697684 357.63236,315.805 L388.306517,315.805 C391.05627,315.826057 393.656991,314.55933 395.332878,312.382689 C397.008764,310.206047 397.566108,307.371078 396.838652,304.723462 Z M375.885843,297.543077 C371.715783,297.543077 368.335281,294.167993 368.335281,290.004615 C368.335281,285.841238 371.715783,282.466154 375.885843,282.466154 C380.055903,282.466154 383.436404,285.841238 383.436404,290.004615 C383.436404,294.167993 380.055903,297.543077 375.885843,297.543077 Z" id="Shape" fill="#A5BBAA" fill-rule="nonzero"></path>
                            <path d="M396.838652,304.723462 L383.51191,255.836538 L383.398652,255.836538 L383.398652,244.076538 C383.398652,239.548866 379.722356,235.878462 375.187416,235.878462 L356.178876,235.878462" id="Path" stroke="#F3F5F4" stroke-linecap="round" stroke-linejoin="round"></path>
                            <path d="M383.51191,255.836538 L396.838652,304.723462 C397.56338,307.361456 397.012761,310.186011 395.349971,312.360073 C393.68718,314.534135 391.102962,315.808311 388.363146,315.805" id="Path" stroke="#F3F5F4" stroke-linecap="round" stroke-linejoin="round"></path>
                            <path d="M308.85573,251.275769 C308.633573,251.271154 308.423025,251.17581 308.273199,251.011978 C308.123373,250.848145 308.047371,250.630151 308.062921,250.408846 L310.346966,209.644615 C310.346966,209.186644 310.718821,208.815385 311.177528,208.815385 C311.636235,208.815385 312.00809,209.186644 312.00809,209.644615 L309.724045,250.408846 C309.734921,250.641928 309.646936,250.868799 309.481679,251.033792 C309.316422,251.198784 309.089186,251.286628 308.85573,251.275769 Z" id="Path" fill="#D1CEC7"></path>
                            <path d="M314.292135,251.275769 C314.071776,251.265997 313.864361,251.169111 313.715634,251.00648 C313.566906,250.843849 313.489082,250.628831 313.499326,250.408846 L315.783371,209.644615 C315.793019,209.421147 315.89268,209.211046 316.059733,209.062004 C316.226786,208.912962 316.447062,208.837619 316.670562,208.853077 C317.132402,208.883381 317.484938,209.277253 317.463371,209.738846 L315.160449,250.503077 C315.15081,250.721554 315.053138,250.926868 314.889622,251.072377 C314.726105,251.217887 314.510626,251.291238 314.292135,251.275769 Z" id="Path" fill="#D1CEC7"></path>
                            <path d="M319.747416,251.275769 C319.527057,251.265997 319.319642,251.169111 319.170915,251.00648 C319.022187,250.843849 318.944363,250.628831 318.954607,250.408846 L321.257528,209.644615 C321.262151,209.422814 321.357648,209.212603 321.521743,209.063017 C321.685838,208.913431 321.904182,208.837551 322.125843,208.853077 C322.34967,208.862709 322.560108,208.962211 322.709389,209.128996 C322.858671,209.295782 322.934135,209.515705 322.918652,209.738846 L320.634607,250.503077 C320.594599,250.956667 320.20296,251.297762 319.747416,251.275769 Z" id="Path" fill="#D1CEC7"></path>
                            <path d="M325.18382,251.275769 C324.964992,251.266145 324.759349,251.16863 324.613606,251.005376 C324.467863,250.842121 324.394394,250.626988 324.409888,250.408846 L326.561798,209.644615 C326.561798,209.186644 326.933653,208.815385 327.39236,208.815385 C327.851066,208.815385 328.222921,209.186644 328.222921,209.644615 L325.938876,250.408846 C325.960931,250.853276 325.627713,251.235862 325.18382,251.275769 Z" id="Path" fill="#D1CEC7"></path>
                            <path d="M330.620225,251.275769 C330.399866,251.265997 330.192451,251.169111 330.043724,251.00648 C329.894996,250.843849 329.817172,250.628831 329.827416,250.408846 L332.111461,209.644615 C332.173951,209.229586 332.531095,208.922611 332.951461,208.922611 C333.371827,208.922611 333.728971,209.229586 333.791461,209.644615 L331.488539,250.408846 C331.499416,250.641928 331.411431,250.868799 331.246173,251.033792 C331.080916,251.198784 330.853681,251.286628 330.620225,251.275769 Z" id="Path" fill="#D1CEC7"></path>
                            <path d="M393.761798,251.275769 C393.54297,251.266145 393.337326,251.16863 393.191583,251.005376 C393.04584,250.842121 392.972371,250.626988 392.987865,250.408846 L395.27191,209.644615 C395.27191,209.186644 395.643765,208.815385 396.102472,208.815385 C396.561179,208.815385 396.933034,209.186644 396.933034,209.644615 L394.516854,250.503077 C394.490536,250.911333 394.169935,251.239423 393.761798,251.275769 Z" id="Path" fill="#D1CEC7"></path>
                            <path d="M399.198202,251.275769 C398.977844,251.265997 398.770429,251.169111 398.621701,251.00648 C398.472973,250.843849 398.39515,250.628831 398.405393,250.408846 L400.689438,209.644615 C400.699086,209.421147 400.798747,209.211046 400.9658,209.062004 C401.132854,208.912962 401.35313,208.837619 401.576629,208.853077 C402.03847,208.883381 402.391005,209.277253 402.369438,209.738846 L400.066517,250.503077 C400.036184,250.953772 399.650123,251.297318 399.198202,251.275769 Z" id="Path" fill="#D1CEC7"></path>
                            <path d="M404.634607,251.275769 C404.414248,251.265997 404.206833,251.169111 404.058106,251.00648 C403.909378,250.843849 403.831554,250.628831 403.841798,250.408846 L406.144719,209.644615 C406.149342,209.422814 406.244839,209.212603 406.408934,209.063017 C406.573029,208.913431 406.791373,208.837551 407.013034,208.853077 C407.236861,208.862709 407.447299,208.962211 407.59658,209.128996 C407.745862,209.295782 407.821326,209.515705 407.805843,209.738846 L405.521798,250.503077 C405.48179,250.956667 405.090151,251.297762 404.634607,251.275769 Z" id="Path" fill="#D1CEC7"></path>
                            <path d="M410.089888,251.275769 C409.87106,251.266145 409.665416,251.16863 409.519673,251.005376 C409.37393,250.842121 409.300461,250.626988 409.315955,250.408846 L411.505618,209.644615 C411.510241,209.422814 411.605738,209.212603 411.769833,209.063017 C411.933928,208.913431 412.152272,208.837551 412.373933,208.853077 C412.599652,208.857338 412.813397,208.955263 412.963827,209.123332 C413.114258,209.291402 413.187783,209.514429 413.166742,209.738846 L410.882697,250.503077 C410.854233,250.924703 410.512754,251.257518 410.089888,251.275769 Z" id="Path" fill="#D1CEC7"></path>
                            <path d="M415.526292,251.275769 C415.304135,251.271154 415.093587,251.17581 414.94376,251.011978 C414.793934,250.848145 414.717932,250.630151 414.733483,250.408846 L417.017528,209.644615 C417.027176,209.421147 417.126837,209.211046 417.29389,209.062004 C417.460944,208.912962 417.681219,208.837619 417.904719,208.853077 C418.127109,208.862431 418.335893,208.962556 418.482214,209.130022 C418.628536,209.297488 418.699555,209.517598 418.678652,209.738846 L416.394607,250.503077 C416.364274,250.953772 415.978213,251.297318 415.526292,251.275769 Z" id="Path" fill="#D1CEC7"></path>
                            <path d="M298.247191,347.975385 L261.155056,347.975385 L242.807191,546.180385 L248.564494,546.180385 C291.678202,431.011538 304.061124,379.203462 307.609888,359.038077 C308.097593,356.282781 307.333658,353.453588 305.524888,351.316398 C303.716118,349.179208 301.049599,347.955074 298.247191,347.975385 Z" id="Path" fill="#633A88"></path>
                            <path d="M243.505618,538.641923 C243.505618,538.641923 284.675056,432.707692 274.085393,361.13 C273.405843,356.569231 261.155056,347.937692 261.155056,347.937692 L243.505618,538.641923 Z" id="Path" fill="#552D7A"></path>
                            <path d="M262.382022,347.975385 L230.782921,347.975385 L156.674157,538.641923 L161.317753,546.180385 C214.719101,464.237308 263.476854,391.51 273.57573,364.107692 C274.92946,360.441868 274.408682,356.347365 272.180208,353.135701 C269.951733,349.924037 266.295269,347.998322 262.382022,347.975385 Z" id="Path" fill="#633A88"></path>
                            <path d="M218.626517,381.069231 C200.599551,385.479231 181.591011,379.184615 177.891236,367.876923 C175.423522,360.518303 178.067936,352.414108 184.403596,347.918846 L176.494382,326.792308 L162.733483,328.450769 L153.540674,357.115769 C149.825896,368.766165 151.900456,381.486916 159.125214,391.358955 C166.349971,401.230993 177.858155,407.069947 190.10427,407.076923 L207.791461,407.076923 L156.674157,538.641923 C233.350112,416.820385 218.626517,381.069231 218.626517,381.069231 Z" id="Path" fill="#552D7A"></path>
                            <polygon id="Path" fill="#00888A" points="161.846292 331.221154 244.355056 331.221154 244.713708 347.994231 156.466517 347.994231"></polygon>
                            <polygon id="Path" fill="#F8A094" points="248.564494 546.180385 248.564494 569.813462 263.363596 571.415385 244.034157 571.415385 242.807191 556.960385 235.992809 548.027308 243.505618 538.641923"></polygon>
                            <path d="M263.363596,571.415385 L261.060674,579.500385 L245.770787,579.500385 C243.143649,579.500385 241.013933,577.374082 241.013933,574.751154 L241.013933,558.826154 L233.199101,548.686923 L243.505618,538.641923 L244.034157,571.415385 L263.363596,571.415385 Z" id="Path" fill="#633A88"></path>
                            <polygon id="Path" fill="#633A88" points="233.199101 548.686923 233.199101 579.519231 238.56 552.098077"></polygon>
                            <polygon id="Path" fill="#F8A094" points="161.714157 546.180385 161.714157 569.813462 176.532135 571.415385 157.18382 571.415385 155.97573 556.960385 149.142472 548.027308 156.674157 538.641923"></polygon>
                            <path d="M176.532135,571.415385 L174.229213,579.500385 L158.939326,579.500385 C157.674462,579.505396 156.459683,579.007245 155.563513,578.116048 C154.667343,577.224851 154.163586,576.014 154.163596,574.751154 L154.163596,558.826154 L146.348764,548.686923 L156.674157,538.641923 L157.18382,571.415385 L176.532135,571.415385 Z" id="Path" fill="#633A88"></path>
                            <polygon id="Path" fill="#E8DFCF" points="146.348764 548.686923 146.348764 579.519231 151.728539 552.098077"></polygon>
                            <path d="M80.5833708,331.202308 L156.674157,331.202308 L156.674157,565.667308 C156.674157,573.307105 150.470937,579.500385 142.818876,579.500385 L94.3820225,579.500385 C86.7299621,579.500385 80.5267416,573.307105 80.5267416,565.667308 L80.5267416,331.202308 L80.5833708,331.202308 Z" id="Path" fill="#91D351"></path>
                            <path d="M69.7483146,331.202308 L145.782472,331.202308 L145.782472,565.667308 C145.782472,573.307105 139.579251,579.500385 131.927191,579.500385 L83.6035955,579.500385 C75.9515352,579.500385 69.7483146,573.307105 69.7483146,565.667308 L69.7483146,331.202308 Z" id="Path" fill="#27D8DB"></path>
                            <path d="M375.11191,331.202308 L451.146067,331.202308 L451.146067,565.667308 C451.146067,573.307105 444.942847,579.500385 437.290787,579.500385 L388.967191,579.500385 C381.315131,579.500385 375.11191,573.307105 375.11191,565.667308 L375.11191,331.202308 Z" id="Path" fill="#91D351"></path>
                            <path d="M364.314607,331.202308 L440.348764,331.202308 L440.348764,565.667308 C440.348764,573.307105 434.145543,579.500385 426.493483,579.500385 L378.169888,579.500385 C370.517827,579.500385 364.314607,573.307105 364.314607,565.667308 L364.314607,331.202308 Z" id="Path" fill="#27D8DB"></path>
                            <rect id="Rectangle" fill="#27D8DB" x="38.3191011" y="315.691923" width="403.237753" height="23.8969231" rx="4.65"></rect>
                            <rect id="Rectangle" fill="#91D351" x="213.001348" y="315.691923" width="286.694831" height="23.8969231" rx="4.65"></rect>
                            <rect id="Rectangle" fill="#00888A" x="69.7483146" y="339.588846" width="76.0341573" height="13.9838462"></rect>
                            <rect id="Rectangle" fill="#00888A" x="364.257978" y="339.588846" width="76.0341573" height="13.9838462"></rect>
                            <path d="M465.62427,85.6557692 L446.200449,70.1453846 L323.315056,70.1453846 C315.131313,70.1453846 308.497079,63.5217819 308.497079,55.3511538 L308.497079,35.0538462 C308.497079,26.8832181 315.131313,20.2596154 323.315056,20.2596154 L450.806292,20.2596154 C458.990035,20.2596154 465.62427,26.8832181 465.62427,35.0538462 L465.62427,85.6557692 Z" id="Path" stroke="#633A88" stroke-width="0.25" fill="#FFFFFF"></path>
                            <path d="M326.033258,32.6038462 L412.090787,32.6038462" id="Path" stroke="#70927F" stroke-width="0.25"></path>
                            <path d="M326.033258,44.0057692 L412.090787,44.0057692" id="Path" stroke="#70927F" stroke-width="0.25"></path>
                            <path d="M326.033258,55.4265385 L412.090787,55.4265385" id="Path" stroke="#70927F" stroke-width="0.25"></path>
                            <path d="M274.821561,155.047308 L294.226517,139.461538 L417.168539,139.461538 C425.352282,139.461538 431.986517,132.837936 431.986517,124.667308 L431.986517,104.445385 C431.991535,100.520177 430.431971,96.754295 427.651973,93.9787518 C424.871974,91.2032086 421.100047,89.646144 417.168539,89.6511538 L289.639551,89.6511538 C285.708042,89.646144 281.936116,91.2032086 279.156117,93.9787518 C276.376119,96.754295 274.816555,100.520177 274.821573,104.445385 L274.821561,155.047308 Z" id="Path" stroke="#633A88" stroke-width="0.25" fill="#FFFFFF"></path>
                            <path d="M414.393708,101.976538 L328.33618,101.976538" id="Path" stroke="#70927F" stroke-width="0.25"></path>
                            <path d="M414.393708,113.397308 L328.33618,113.397308" id="Path" stroke="#70927F" stroke-width="0.25"></path>
                            <path d="M414.393708,124.818077 L328.33618,124.818077" id="Path" stroke="#70927F" stroke-width="0.25"></path>
                            <path d="M56.3460674,407.661154 C67.3029004,407.661154 76.1851685,416.529188 76.1851685,427.468462 L76.1851685,555.377308 C76.1851685,558.23963 73.8610736,560.56 70.9941573,560.56 L41.6791011,560.56 C38.8121848,560.56 36.4880899,558.23963 36.4880899,555.377308 L36.4880899,427.468462 C36.4880899,422.215237 38.5782749,417.177171 42.2988281,413.46258 C46.0193813,409.747989 51.0655342,407.661154 56.327191,407.661154 L56.3460674,407.661154 Z" id="Path" fill="#91D351"></path>
                            <path d="M73.8822472,485.948077 L60.8386517,485.948077 C57.2462509,486.105779 53.8570274,484.282151 52.0136736,481.19965 C50.1703197,478.117149 50.1703197,474.273236 52.0136736,471.190735 C53.8570274,468.108234 57.2462509,466.284605 60.8386517,466.442308 L73.8822472,466.442308 C81.1798524,466.442308 87.0957303,460.53591 87.0957303,453.25 L87.0957303,439.605385 C86.9377749,436.018741 88.7643305,432.634949 91.8517793,430.794549 C94.9392281,428.954149 98.7893113,428.954149 101.87676,430.794549 C104.964209,432.634949 106.790764,436.018741 106.632809,439.605385 L106.632809,453.25 C106.632809,461.922069 103.182313,470.238953 97.0403915,476.371032 C90.8984698,482.503111 82.5682362,485.948077 73.8822472,485.948077 Z" id="Path" fill="#91D351"></path>
                            <path d="M53.1748315,511.673077 L39.4894382,511.673077 C21.420852,511.652306 6.77855719,497.033476 6.75775281,478.993846 L6.75775281,465.952308 C6.75775281,460.560734 11.1355025,456.19 16.5357303,456.19 C21.9359582,456.19 26.3137079,460.560734 26.3137079,465.952308 L26.3137079,478.993846 C26.3137079,486.279757 32.2295858,492.186154 39.527191,492.186154 L53.2125843,492.186154 C58.6128121,492.186154 62.9905618,496.556888 62.9905618,501.948462 C62.9905618,507.340035 58.6128121,511.710769 53.2125843,511.710769 L53.1748315,511.673077 Z" id="Path" fill="#91D351"></path>
                            <rect id="Rectangle" fill="#F3F5F4" x="45.0391011" y="429.880769" width="1.62337079" height="6.78461538"></rect>
                            <rect id="Rectangle" fill="#F3F5F4" x="65.8220225" y="419.703846" width="1.62337079" height="6.78461538"></rect>
                            <rect id="Rectangle" fill="#F3F5F4" x="54.2507865" y="459.167692" width="1.62337079" height="6.78461538"></rect>
                            <rect id="Rectangle" fill="#F3F5F4" x="60.0269663" y="438.606538" width="1.62337079" height="6.78461538"></rect>
                            <rect id="Rectangle" fill="#F3F5F4" x="68.9177528" y="496.709231" width="1.62337079" height="6.78461538"></rect>
                            <rect id="Rectangle" fill="#F3F5F4" x="91.1352809" y="436.213077" width="1.62337079" height="6.78461538"></rect>
                            <rect id="Rectangle" fill="#F3F5F4" x="45.0391011" y="480.708846" width="1.62337079" height="6.78461538"></rect>
                            <rect id="Rectangle" fill="#F3F5F4" x="46.7379775" y="509.713077" width="1.62337079" height="6.78461538"></rect>
                            <rect id="Rectangle" fill="#F3F5F4" x="62.0467416" y="479.163462" width="1.62337079" height="6.78461538"></rect>
                            <rect id="Rectangle" fill="#F3F5F4" x="12.4773034" y="480.539231" width="1.62337079" height="6.78461538"></rect>
                            <rect id="Rectangle" fill="#F3F5F4" x="20.2921348" y="467.874615" width="1.62337079" height="6.78461538"></rect>
                            <rect id="Rectangle" fill="#F3F5F4" x="23.8786517" y="487.323846" width="1.62337079" height="6.78461538"></rect>
                            <rect id="Rectangle" fill="#F3F5F4" x="70.3523596" y="453.268846" width="1.62337079" height="6.78461538"></rect>
                            <rect id="Rectangle" fill="#F3F5F4" x="94.5330337" y="462.56" width="1.62337079" height="6.78461538"></rect>
                            <path d="M89.9460674,522.980769 L23.425618,522.980769 C22.5712199,522.984704 21.7595411,523.354295 21.1963991,523.995825 C20.6332571,524.637355 20.372737,525.48921 20.4808989,526.335385 L27.3707865,577.860769 C28.0884068,583.119726 32.5877633,587.040291 37.9038202,587.038846 L76.6382022,587.038846 C82.0434183,587.041985 86.5835038,582.980327 87.171236,577.615769 L92.8341573,526.278846 C92.9241297,525.45141 92.6631382,524.624143 92.1144403,523.997553 C91.5657425,523.370963 90.7794238,523.002246 89.9460674,522.980769 Z" id="Path" fill="#F3F5F4"></path>
                            <polygon id="Path" fill="#00888A" points="89.8139326 554.039231 90.9653933 543.598462 22.8026966 543.598462 24.1995506 554.039231"></polygon>
                            <ellipse id="Oval" stroke="#633A88" stroke-width="0.25" fill="#633A88" cx="24.0674157" cy="257.570385" rx="16.4979775" ry="16.4715385"></ellipse>
                            <ellipse id="Oval" stroke="#633A88" stroke-width="0.25" fill="#633A88" cx="538.883596" cy="296.035385" rx="16.4979775" ry="16.4715385"></ellipse>
                            <ellipse id="Oval" stroke="#70927F" stroke-width="0.25" fill="#F3F5F4" cx="520.026067" cy="400.575" rx="8.24898876" ry="8.23576923"></ellipse>
                            <polygon id="Path" stroke="#633A88" stroke-width="0.25" fill="#633A88" points="633.09573 143.532308 626.753258 169.615385 606.989663 149.883462"></polygon>
                            <polygon id="Path" stroke="#633A88" stroke-width="0.25" fill="#633A88" points="192.614831 69.9946154 169.661124 83.9596154 169.661124 56.0484615"></polygon>
                            <polygon id="Path" stroke="#633A88" stroke-width="0.25" fill="#633A88" points="634.719101 392.339231 611.765393 406.285385 611.765393 378.374231"></polygon>
                            <rect id="Rectangle" stroke="#633A88" stroke-width="0.25" fill="#FFFFFF" x="538.883596" y="295.809231" width="133.116404" height="45.6265385" rx="6.39"></rect>
                            <path d="M648.48,307.211154 L562.422472,307.211154" id="Path" stroke="#70927F" stroke-width="0.25"></path>
                            <path d="M648.48,318.613077 L562.422472,318.613077" id="Path" stroke="#70927F" stroke-width="0.25"></path>
                            <path d="M648.48,330.033846 L562.422472,330.033846" id="Path" stroke="#70927F" stroke-width="0.25"></path>
                            <rect id="Rectangle" stroke="#633A88" stroke-width="0.25" fill="#FFFFFF" x="0.887191011" y="149.563077" width="133.116404" height="45.6265385" rx="6.39"></rect>
                            <path d="M110.483596,160.946154 L24.4260674,160.946154" id="Path" stroke="#70927F" stroke-width="0.25"></path>
                            <path d="M110.483596,172.366923 L24.4260674,172.366923" id="Path" stroke="#70927F" stroke-width="0.25"></path>
                            <path d="M110.483596,183.787692 L24.4260674,183.787692" id="Path" stroke="#70927F" stroke-width="0.25"></path>
                        </g>
                    </g>
                    <g id="Recurso-2" transform="translate(433.000000, 301.000000)" fill="#FFFFFF" fill-rule="nonzero">
                        <path d="M20.7168014,7.2702879 C20.4625722,6.88785058 20.0562627,6.66119991 19.6235446,6.66043889 L7.21911345,6.66043889 C7.2000561,6.60979159 7.18163399,6.55845049 7.16321188,6.50780319 C6.92435972,5.87228364 6.67724938,5.21525632 6.47142996,4.55545382 C5.98102074,2.9833061 4.93858352,1.70532901 3.3720691,0.756212466 L3.34094209,0.739561299 C2.60405776,0.400987563 1.7947555,0.0776773965 0.896518921,0.00968512975 C0.601129947,-0.0125164267 0.320986855,-0.0145978226 0.139306755,0.208111541 C-0.0423733447,0.430820904 -0.0118815796,0.733317111 0.0395732739,1.05454588 C0.166622295,1.84894532 0.446765386,2.58090289 0.721826517,3.26498835 L0.746601076,3.31494185 C1.97198888,5.3796866 3.65919988,6.58065205 5.7593202,6.88522965 C5.83745535,6.89633043 5.88192251,6.92477617 5.98483221,7.14748554 C6.34343321,7.90555762 6.62299699,8.70519363 6.81827379,9.53137766 C7.14912885,10.9467171 7.22891086,12.4181361 7.05331448,13.8662316 C7.05331448,13.8724758 7.05331448,13.8787199 7.05013825,13.8856579 C6.90444708,14.6811288 6.69920886,15.4621941 6.43649148,16.2209841 C6.24940528,16.7854482 6.02587262,17.3346979 5.76757839,17.8645931 C5.75216273,17.8914514 5.73857427,17.9195101 5.7269227,17.9485428 L5.7269227,17.9520118 C5.7269227,17.9520118 5.7269227,17.9520118 5.7269227,17.9561745 C5.56553806,18.3154006 5.70134332,18.7494979 6.03025224,18.9257581 C6.35916116,19.1020184 6.75662263,18.9536953 6.91800727,18.5944693 L6.92753595,18.5743491 C7.10349884,18.1858219 6.97263835,18.4432212 7.09841688,18.1580699 C7.4511722,17.3859532 7.73700773,16.5794822 7.9521863,15.7492011 L17.9052066,15.7492011 C18.7595233,15.7395918 19.4973316,15.093908 19.6921511,14.1853789 L20.9556536,8.59891229 C21.0621881,8.13931728 20.9745393,7.65176737 20.7168014,7.2702879 Z M5.06182107,5.31100054 C4.10387146,4.91345392 1.89004227,3.79643811 1.46760427,1.83715075 C1.45130227,1.75453404 1.47515261,1.66857527 1.53070244,1.60973937 C1.58625226,1.55090347 1.66565137,1.52750501 1.74075967,1.54783671 C4.02764204,2.14172835 5.00528426,4.07534516 5.34831662,4.99046556 C5.3819487,5.08049557 5.36347613,5.18373832 5.30128623,5.25331719 C5.23909633,5.32289607 5.14503931,5.34555291 5.06182107,5.31100054 Z M20.0675809,8.3373502 L18.8028079,13.9231231 C18.7035076,14.3781256 18.3322043,14.6999686 17.9039361,14.7022589 L8.17896881,14.7022589 C8.18976797,14.6412046 8.19993189,14.5794566 8.20946057,14.5184023 C8.28597399,14.0333398 8.3391956,13.5442369 8.36890709,13.0530996 L12.2597834,13.0530996 C12.4198651,13.0530996 12.7241475,12.7970879 12.7241475,12.4814095 C12.7241475,12.1657311 12.4198651,11.9097194 12.2597834,11.9097194 L8.39685788,11.9097194 C8.39036449,11.3976234 8.354722,10.8864638 8.2901367,10.3791996 L14.4615429,10.3791996 C14.6394115,10.3791996 14.9583046,10.1231879 14.9583046,9.80750952 C14.9583046,9.49183114 14.640682,9.23581944 14.4615429,9.23581944 L8.08368204,9.23581944 C7.98119761,8.79530013 7.84826168,8.36390712 7.6860186,7.94535397 C7.65616208,7.86764852 7.62694081,7.78855548 7.59771953,7.71015567 L19.6235446,7.71015623 C19.7681513,7.70991892 19.9041442,7.78521438 19.9894458,7.91274544 C20.0732346,8.03394929 20.1019879,8.19020172 20.0675809,8.3373502 Z" id="Shape"></path>
                        <path d="M8.03416304,5.61628954 C8.04857012,5.89996567 8.09491371,6.18060926 8.17214213,6.45185165 C8.23346617,6.64596476 8.30945465,6.88970079 8.50542496,6.97070288 L8.5220891,6.97800036 C8.71805941,7.05097522 8.90603092,6.93056671 9.0966687,6.79045498 C9.8965475,6.20227764 10.449797,5.42655491 10.7357537,4.48299001 C11.0643705,3.55474983 11.0863672,2.57177851 10.8024102,1.56399574 C10.7357537,1.33120595 10.6564324,1.0991459 10.4524633,1.0225223 C10.2484942,0.945898705 10.0525239,1.0779832 9.86988487,1.22028417 C8.48409486,2.2966633 7.86218909,3.73791672 8.02549768,5.50974625 L8.03416304,5.61628954 Z M9.90921225,2.30323104 C9.94876977,2.25519203 10.0107953,2.23783156 10.0665589,2.25919089 C10.1223226,2.28055022 10.1609333,2.3364577 10.1645069,2.40101735 C10.1925027,3.02422262 10.1145145,3.57810179 9.93120891,4.05243836 L9.92787609,4.06192509 L9.92787609,4.07068207 C9.71257538,4.72745578 9.42195275,5.28936218 9.09066961,5.70094037 C9.05111001,5.7495704 8.98863694,5.76722177 8.93252214,5.74562393 C8.87640735,5.72402609 8.83776793,5.66745788 8.8347084,5.60242431 C8.77138466,4.33631055 9.12666416,3.24971493 9.90921225,2.30323104 Z" id="Shape"></path>
                        <path d="M5.99838366,7.70366588 C6.01886069,7.44549166 5.84160645,7.24024315 5.64643483,7.05823032 C4.26551558,5.78091336 1.89849968,5.63827211 0.370401824,6.74842126 C0.282094662,6.81296481 0.0139736393,7.00659548 0.000535592858,7.31575911 C-0.0129024536,7.62492274 0.230262197,7.83210755 0.310250568,7.90246003 C1.024452,8.52637042 1.91483936,8.9083592 2.85580051,8.99453699 L2.87371791,8.99453699 C3.87453241,9.04036291 4.78000078,8.79767914 5.5613272,8.27423091 C5.77761576,8.13094421 5.97790664,7.9618401 5.99838366,7.70366588 Z M4.44276981,7.7185109 C3.95336173,7.83730076 3.44896766,7.88082102 2.9466673,7.84759801 C2.45666611,7.81826318 1.9745798,7.70928708 1.51903484,7.52488023 C1.46257321,7.50501214 1.42617932,7.44960292 1.43005807,7.38941427 C1.43393682,7.32922562 1.47713594,7.27903464 1.53567242,7.26670601 C2.50596378,7.01704956 3.52981087,7.08485604 4.45940739,7.46033667 C4.51502279,7.48096621 4.55054872,7.53604947 4.54670513,7.59569256 C4.54286154,7.65533564 4.50056492,7.70531673 4.44276981,7.7185109 Z" id="Shape"></path>
                        <path d="M17.0499169,17 C16.9603018,17.0002308 16.8708042,17.006668 16.782034,17.0192677 L10.2164008,17.0192677 C10.1274202,17.0066741 10.0377148,17.000237 9.94789211,17 C9.07837255,17.0005984 8.31441352,17.5921598 8.07530461,18.4500129 C7.83619571,19.307866 8.17978059,20.2244846 8.91748688,20.6967938 C9.65519318,21.169103 10.6085598,21.0828448 11.2543431,20.485361 C11.9001265,19.8878772 12.0821028,18.9237071 11.7003967,18.1220238 L15.3036712,18.1220238 C14.9230818,18.9229912 15.1055777,19.8857729 15.7509982,20.4819578 C16.3964187,21.0781426 17.348628,21.1635055 18.0850174,20.691196 C18.8214069,20.2188866 19.1638339,19.3031627 18.9243616,18.4466085 C18.6848893,17.5900544 17.9214493,16.9998818 17.0530463,17 L17.0499169,17 Z M9.94789211,19.7244562 C9.55659142,19.7244562 9.23937955,19.3989513 9.23937955,18.9974207 C9.23937955,18.5958901 9.55659142,18.2703853 9.94789211,18.2703853 C10.3391928,18.2703853 10.6564047,18.5958901 10.6564047,18.9974207 C10.6557157,19.3986581 10.338907,19.7237491 9.94789211,19.7244562 Z M17.0499169,19.7244562 C16.6586162,19.7244562 16.3414043,19.3989513 16.3414043,18.9974207 C16.3414043,18.5958901 16.6586162,18.2703853 17.0499169,18.2703853 C17.4412176,18.2703853 17.7584294,18.5958901 17.7584294,18.9974207 C17.7580843,19.3988046 17.4410745,19.7241021 17.0499169,19.7244562 Z" id="Shape"></path>
                    </g>
                </g>
            </g>
        </g>
    </g>
</svg>